<?xml version="1.0" encoding="UTF-8" standalone="no"?>
<!-- Created with Inkscape (http://www.inkscape.org/) -->

<svg
   xmlns:dc="http://purl.org/dc/elements/1.1/"
   xmlns:cc="http://creativecommons.org/ns#"
   xmlns:rdf="http://www.w3.org/1999/02/22-rdf-syntax-ns#"
   xmlns:svg="http://www.w3.org/2000/svg"
   xmlns="http://www.w3.org/2000/svg"
   version="1.1"
   width="100%"
   height="100%"
   viewBox="0 0 358.17499 61.962502"
   id="svg2"
   xml:space="preserve"><metadata
     id="metadata8"><rdf:RDF><cc:Work
         rdf:about=""><dc:format>image/svg+xml</dc:format><dc:type
           rdf:resource="http://purl.org/dc/dcmitype/StillImage" /><dc:title></dc:title></cc:Work></rdf:RDF></metadata><defs
     id="defs6"><clipPath
       id="clipPath18"><path
         d="m 0,0 2865,0 0,495.738 -2865,0 L 0,0 z"
         id="path20" /></clipPath></defs><g
     transform="matrix(1.25,0,0,-1.25,0,61.9625)"
     id="g10"><g
       transform="scale(0.1,0.1)"
       id="g12"><g
         id="g14"><g
           clip-path="url(#clipPath18)"
           id="g16"><path
             d="m 529.656,307.809 c -1.781,-0.461 -5.926,-1.68 -8.676,-2.028 5.211,5.043 8.344,11.246 8.344,16.414 -2.488,-0.793 -6.961,-2.461 -11.043,-3.371 8.114,6.86 12.5,14.828 10.586,25.41 -2.472,-1.242 -5.945,-3.257 -9.437,-4.707 7.074,10.871 6.965,20.45 4.05,26.063 -3.144,-2.945 -6.972,-6.41 -11.031,-8.871 2.59,12.578 2.473,20.668 -2.797,26.285 -5.398,-10.113 -9.988,-17.664 -17.55,-26.637 0.578,8.309 -0.309,18.672 -5.739,24.067 0,0 -1.543,-11.606 -5.601,-15.297 -0.996,11.351 -4.489,17.519 -9.664,23.601 0,0 -0.336,-11.8 -3.559,-19.105 -2.734,9.875 -7.805,17.555 -14.301,24.847 0.457,-21.812 -5.617,-62.957 -23.14,-90.601 -2.047,-16.399 -3.852,-41.027 -30.571,-55.637 -3.839,2.703 -10.609,6.172 -20.125,5.61 -2.515,12.386 13.672,23.613 27.618,32.613 14.101,9.101 20.226,16.844 19.91,28.98 -0.325,13.274 -9.34,18.719 -18.66,19.098 -13.153,0.574 -23.821,-11.328 -26.329,-16.258 -3.804,-1.824 -15.043,-5.308 -19.652,-6.539 -5.101,-1.371 -10.894,-3.476 -14.496,-6.523 2.145,-1.344 8.297,-1.809 10.691,-1.446 4.446,0.625 18.668,3.27 32.243,4.918 4.961,-2.672 12.918,-7.152 4.492,-13.031 -11.551,-7.41 -16.52,-9.316 -32.817,-17.844 -25.765,-13.496 -17.422,-47.468 -11.093,-49.929 0,-11.442 10.211,-32.145 17.16,-39.329 3.14,-14.402 -1.02,-35.847 -5.371,-44.722 -3.594,8.726 -9.801,28.98 -13.856,40.777 4.188,22.348 -2.582,32.164 -7.293,35.965 -4.726,3.844 -12.137,2.801 -16.965,-4.953 7.426,0.82 9.903,-8.695 9.739,-18.531 -0.172,-11.817 -3.192,-21.309 -11.422,-21.368 0.676,-10.117 11.543,-12.937 16.953,-8.093 0.859,-2.254 5.25,-15.508 9.371,-27.325 2.445,-7.003 4.828,-13.457 6.395,-16.835 1.71,-3.762 14.261,-4.297 15.718,0 1.992,5.8 3.559,10.117 6.676,16.835 l 0,0 c 2.402,5.098 5.691,11.622 10.75,21.27 3.391,-5.828 7.867,-15.031 10.449,-21.27 1.223,-2.902 2.043,-5.214 2.133,-6.281 1.02,-9.636 0.445,-43.8162 -2.133,-64.2849 -28.105,7.6562 -36.058,-6.0859 -33.601,-16.2813 4.027,4.4961 9.304,3.9258 12.593,1.5352 -0.796,-7.5117 1.235,-12.8906 8.891,-15.1641 8.07,21.3555 37.066,16.6368 39.766,14.8399 0.125,4.164 4.027,14.4726 -10.895,16.6406 0.559,18.4297 2.445,41.0356 3.137,45.7536 0.691,4.727 1.226,7.637 -1.012,15.047 -0.68,2.219 -1.476,4.942 -2.316,8.195 l 0,0 c -1.946,7.461 -3.942,17.208 -4.09,27.774 2.602,-2.57 8.769,-4.609 13.027,-3.703 3.285,-13.922 7.992,-9.891 10.469,-15.742 1.27,-3.008 1.563,-5.809 1.922,-8.329 0.301,-2.46 0.699,-4.57 2.043,-6.367 9.957,-0.285 18.426,2.078 24.515,6.367 1.872,1.309 3.5,2.782 4.876,4.403 -2.438,14.844 -6.626,22.148 -14.368,31.144 -2.031,12.129 -7.699,23.289 -15.5,33.09 9.825,3.199 19.746,11.156 24.989,16.703 4.691,0.348 10.078,4.254 10.503,11.914 2.723,0.317 5.063,0.465 7.231,0.907 -0.254,2.101 -0.785,5.277 -1.129,7.175 3.606,0 7.07,0.141 10.434,0.461 -0.985,2.813 -2.246,5.715 -3.246,7.844 3.617,0 8.082,0.258 11.691,0.461 -1.898,3.598 -3.383,6.746 -4.488,9.91 4.125,0.426 10.566,1.457 15.804,2.688 -1.679,1.773 -3.578,3.597 -6.48,6.41 13.703,4.043 19.652,13.598 20.348,17.758 -2.039,0 -6.188,-0.918 -8.668,-0.692 7.671,4.516 12.808,10.692 13.597,17.321"
             id="path22"
             style="fill:#231f20;fill-opacity:1;fill-rule:nonzero;stroke:none" /><path
             d="m 338.02,277.051 -173.141,0 0,-63.942 c 0.797,-0.472 1.543,-1.07 2.305,-1.761 l 0,62.984 172.246,0 0,-58.574 c 0.629,-0.645 1.218,-1.453 1.785,-2.492 l 0,63.785 -3.195,0"
             id="path24"
             style="fill:#231f20;fill-opacity:1;fill-rule:nonzero;stroke:none" /><path
             d="m 252.789,56.6992 c -76.402,28.457 -86.101,91.1408 -86.367,119.5508 -0.067,0.02 -0.192,0.02 -0.254,0.051 0.137,0.758 0.141,1.355 0.242,2.066 0.039,6.172 0.5,10.352 0.695,11.828 -0.21,4.067 -0.82,7.25 -1.492,9.602 -0.164,0.484 -0.511,1.008 -0.734,1.496 l 0,-29.496 c 0,-33.039 12.109,-61.524 35.973,-84.6408 20.91,-20.2812 44.406,-29.707 51.125,-32.1171 l 1.066,-0.3907 1.078,0.3907 c 6.703,2.4101 30.211,11.8359 51.117,32.1171 23.867,23.1168 35.977,51.6018 35.977,84.6408 l 0,5.379 c -0.606,-0.977 -1.231,-1.602 -1.86,-2.34 C 338.66,160.008 335.922,137.031 326.09,119.668 314.254,95.3984 296.117,75.4219 252.789,56.6992"
             id="path26"
             style="fill:#231f20;fill-opacity:1;fill-rule:nonzero;stroke:none" /><path
             d="m 115.57,449.883 c 10.91,-5.305 14.387,4.492 34.739,-8.653 -13.473,-4.273 -23.829,-20.929 -39,-16.656 10.894,5.406 9.761,13.383 16.078,17.324 -4.059,0.54 -11.918,2.375 -11.817,7.985 l 0,0 z m 39.133,-108.235 c -6.515,2.672 -16.555,4.364 -22.164,-3.507 -3.023,5.297 1.461,13.277 4.297,15.632 -14.301,-0.218 -22.379,4.122 -24.512,8.45 5.278,2.89 18.649,7.734 29.547,-0.254 7.524,-5.508 11.352,-8.196 20.254,-11.11 3.207,3.223 2.012,1.782 3.035,2.696 -7.316,5.035 -10.574,43.941 -24.883,45.429 2.059,4.918 9.465,4.473 15.422,2.891 0.422,8.715 -3.172,23.07 -8.582,31.383 8.344,4.375 14.028,-0.371 16.93,-10.699 3.031,-10.989 -0.59,-38.426 6.613,-63.168 l 4.496,4.129 c -2.261,14.433 13.598,19.722 17.074,26.89 1.34,-9.668 -0.675,-14.023 -3.363,-17.539 5.738,-0.668 8.297,-6.285 7.406,-10.234 -13.8,2.039 -21.808,-11.817 -18.73,-22.809 -10.207,-2.246 -17.207,-0.523 -22.84,1.82 l 0,0 z m 67.539,-8.007 c -11.906,-0.657 -23.594,-16.176 -18.664,-33.832 -1.793,-0.661 -6.969,-0.567 -8.629,3.011 -1.265,-5.722 -12.953,-12.347 -21.476,-11.433 4.711,5.066 7.879,16.535 17.062,22.574 9.235,6.094 13.395,10.242 16.645,20.566 -4.27,-1.988 -26.52,-7.73 -32.832,-0.886 14.636,2.136 31.941,10.363 40.472,15.742 l -3.371,3.594 c -9.191,-5.2 -21.453,-9.43 -27.656,-11.387 -2.223,18.312 15.223,17.582 16.539,12.621 7.18,8.566 2.145,20.816 -3.168,22.176 5.43,14.609 0,23.59 -4.598,28.984 -1.097,-15.519 -18.425,-17.992 -20.457,-29.933 -0.664,9.472 -1.293,35.011 -2.031,47.472 -1.344,23.149 -30.57,31.25 -35.062,31.25 -19.098,-0.914 -20.895,1.567 -20.43,10.438 -9.668,-11.004 -6.434,-20.789 1.797,-25.528 -1.145,-6.625 -11.719,-11.761 -18.2228,-13.234 15.5118,-14.395 33.5158,-5.84 42.1168,2.348 0.661,0.613 1.25,1.132 1.875,1.66 3.114,-5.489 5.352,-15.489 5.352,-21.227 -14.492,0.781 -17.082,-10.453 -17.082,-14.496 18.433,7.66 20.437,-27.66 25.277,-33.375 -4.722,0.34 -13.035,11.246 -25.277,12.024 -14.774,0.937 -19.984,-6.961 -25.965,-6.633 1.105,-10.438 13.805,-16.293 22.023,-17.539 -4.175,-10.668 -0.496,-17.918 8.2,-20.555 0,9.769 12.351,12.812 25.609,5.059 15.906,-9.293 24.082,-10.114 36.875,-6.176 -2.105,-4.629 -7.863,-5.086 -14.934,-12.043 -9.902,-9.754 -10.214,-22.496 -21.253,-27.094 12.961,-6.164 32.5,2.465 35.296,7.445 5.407,-3.39 12.395,-1.394 14.278,1.993 -8.766,19.468 6.058,31.019 11.922,30.816 0,0 2.601,5.789 -0.231,5.598 l 0,0"
             id="path28"
             style="fill:#231f20;fill-opacity:1;fill-rule:nonzero;stroke:none" /><path
             d="m 356.77,439.305 c 6.535,4.699 10.679,6.754 14.082,8.757 5.609,-0.207 15.281,0.458 21.113,3.372 -6.067,-7.43 -6.731,-10.125 -16.649,-11.215 12.832,-1.149 18.235,-12.614 24.532,-14.383 -21.379,-6.516 -23.532,14.715 -43.078,13.469 l 0,0 z m 26.421,-63.973 c 6.418,-5.258 4.305,-12.695 2.817,-14.367 -5.613,9.668 -23.606,6.305 -41.258,-13.606 -1.227,-1.492 -2.895,-3.199 -4.867,-4.933 1.387,23.828 -18.121,24.262 -23.86,21.801 0.633,6.859 4.895,11.57 7.165,12.253 -5.739,6.622 -6.989,15.032 -7.637,21.141 9.562,-4.16 23.687,-15.301 26.074,-34.527 l 6.168,4.176 c -1.836,33.578 -1.441,33.476 -1.672,56.289 -0.027,3.203 0.129,10.66 10.27,9.875 0.425,-8.489 1.734,-31.024 1.285,-62.348 l 3.625,0 c 3.246,8.742 14.844,19.004 28.308,18.078 9.219,-0.605 12.368,-0.434 17.672,1.914 -4.301,-10.445 -20.031,-15.055 -24.09,-15.746 l 0,0 z m -19.437,11.723 c 0,21.652 -0.774,39.488 -1.027,45.109 0.832,-0.23 1.683,-0.523 2.617,-0.836 15.562,-5.453 19.105,-24.176 51.226,-2.926 -17.172,-2.031 -18.09,12.594 -25.961,12.907 11.895,6.753 12.715,22.265 12.715,22.265 -10.004,-8.062 -33.152,-8.539 -37.66,-11.203 -6.008,-3.617 -13.551,-8.012 -18.656,-10.809 -13.371,-7.281 -4.059,-46.894 -5.383,-61.371 -7.227,21.59 -21.789,18.329 -29.469,30.668 -5.726,-10.316 0.36,-27.617 2.711,-32.582 -8.336,-6.734 -6.082,-19.234 -4.055,-22.578 7.102,5.102 18.067,3.793 21.415,-4.761 -9.321,-5.68 -24.922,-6.715 -35.579,3.609 l -3.816,-4.254 c 7.504,-9.953 26.363,-13.813 40.375,-5.785 -0.055,-2.266 -0.547,-4.817 -1.477,-7.633 -7.296,-3.824 -16.695,-5.918 -27.433,-2.219 1.469,-10.902 13.961,-18.976 25.836,-22.254 -4.004,-3.129 -8.961,-4.375 -12.567,-3.949 2.27,-6.281 3.493,-14.703 -1.238,-21.328 -5.937,3.934 -9.098,7.871 -11.34,23.133 -2.285,15.277 -13.269,30.816 -21.808,33.965 -0.477,-5.407 -0.477,-3.043 0.457,-6.528 22.695,-16.64 9.855,-46.636 33.468,-57.418 8.661,9.875 8.762,13.356 7.438,22.676 8.543,2.262 14.914,9.449 17.172,14.973 -8.078,-3.824 -20.891,2.914 -24.492,8.191 14.05,0.449 27.074,11.047 40.355,24.953 11.914,12.45 27.77,10.575 26.527,0.793 8.215,1.231 11.461,12.469 8.754,19.68 12.043,3.789 21.481,12.691 22.817,26.621 -16.149,-8.074 -36.617,5.293 -51.922,-11.109 l 0,0"
             id="path30"
             style="fill:#231f20;fill-opacity:1;fill-rule:nonzero;stroke:none" /><path
             d="m 276.324,313.188 c -1.105,0 -2.109,-0.516 -2.75,-1.336 -1.191,0.191 -2.504,0.41 -3.812,0.55 l 0.05,6.934 c 1.247,0.527 2.102,1.758 2.102,3.199 0,1.903 -1.555,3.488 -3.469,3.488 -1.922,0 -3.465,-1.585 -3.465,-3.488 0,-1.324 0.708,-2.469 1.793,-3.043 l -0.054,-6.699 c -1.196,0.121 -2.395,0.238 -3.676,0.348 -0.523,1.238 -1.731,2.074 -3.141,2.074 -1.929,0 -3.472,-1.555 -3.472,-3.477 0,-1.914 1.543,-3.48 3.472,-3.48 1.227,0 2.309,0.637 2.914,1.613 1.368,-0.156 2.633,-0.281 3.899,-0.433 l -0.121,-10.141 c -1.11,-0.582 -1.86,-1.723 -1.86,-3.063 0,-1.922 1.559,-3.5 3.473,-3.5 1.926,0 3.508,1.578 3.508,3.5 0,1.395 -0.86,2.598 -2.067,3.137 l 0.098,9.711 c 1.156,-0.156 2.234,-0.328 3.277,-0.508 0.489,-1.367 1.766,-2.344 3.301,-2.344 1.914,0 3.477,1.563 3.477,3.465 0,1.942 -1.563,3.493 -3.477,3.493 l 0,0"
             id="path32"
             style="fill:#231f20;fill-opacity:1;fill-rule:nonzero;stroke:none" /><path
             d="m 246.188,315.215 c -1.415,0 -2.633,-0.836 -3.192,-2.074 -1.223,-0.11 -2.461,-0.227 -3.641,-0.348 l -0.046,6.699 c 1.062,0.574 1.812,1.719 1.812,3.043 0,1.903 -1.57,3.488 -3.449,3.488 -1.953,0 -3.508,-1.585 -3.508,-3.488 0,-1.441 0.859,-2.672 2.07,-3.199 l 0.09,-6.934 c -1.308,-0.14 -2.617,-0.359 -3.824,-0.55 -0.613,0.82 -1.594,1.336 -2.734,1.336 -1.918,0 -3.473,-1.551 -3.473,-3.493 0,-1.902 1.555,-3.465 3.473,-3.465 1.527,0 2.808,0.977 3.285,2.344 1.043,0.18 2.137,0.352 3.289,0.508 l 0.09,-9.711 c -1.2,-0.539 -2.035,-1.742 -2.035,-3.137 0,-1.922 1.543,-3.5 3.457,-3.5 1.929,0 3.496,1.578 3.496,3.5 0,1.34 -0.774,2.481 -1.879,3.063 l -0.067,10.141 c 1.223,0.152 2.532,0.277 3.856,0.433 0.605,-0.976 1.699,-1.613 2.93,-1.613 1.914,0 3.492,1.566 3.492,3.48 0,1.922 -1.578,3.477 -3.492,3.477 l 0,0"
             id="path34"
             style="fill:#231f20;fill-opacity:1;fill-rule:nonzero;stroke:none" /><path
             d="m 253.043,285.77 c -5.16,-9.895 -14.781,-9.59 -23.164,-4.055 -3.375,2.246 -6.809,3.695 -10,4.203 1.465,9.742 3.859,28.105 5.594,43.613 10.867,4.922 24.269,6.082 27.57,-6.441 3.301,12.523 16.703,11.363 27.559,6.441 1.742,-15.508 4.16,-33.871 5.605,-43.613 -3.145,-0.508 -6.637,-1.957 -10.016,-4.203 -8.379,-5.535 -17.988,-5.84 -23.148,4.055 l 0,0 z m 39.277,-0.344 c -2.105,14.008 -7.156,53.226 -7.742,66.336 l -5.969,-0.262 c 0.075,-2.242 0.321,-5.184 0.625,-8.629 -7.179,2.125 -16.578,3.609 -26.191,3.609 -9.574,0 -19.02,-1.484 -26.191,-3.609 0.3,3.445 0.535,6.387 0.636,8.629 l -5.984,0.262 c -0.586,-13.11 -5.637,-52.328 -7.738,-66.336 -3.571,-1.387 -5.907,-4.953 -5.907,-11.356 0,0 32.586,-0.457 45.184,-0.457 12.598,0 45.156,0.457 45.156,0.457 0,6.403 -2.336,9.969 -5.879,11.356 l 0,0"
             id="path36"
             style="fill:#231f20;fill-opacity:1;fill-rule:nonzero;stroke:none" /><path
             d="m 428.852,5.73047 -351.6059,0 C 75.668,16.9258 73.5352,24.1094 71.6211,30.1562 l 362.8319,0 C 432.535,24.1094 430.43,16.9258 428.852,5.73047 l 0,0 z M 190.535,80.9766 c 3.25,-4.8047 6.336,-8.3008 7.824,-12.1289 1.539,-4.0352 0.536,-6.4454 -2.406,-10.586 C 189.27,48.918 177.711,40.8789 168.605,35.8984 l -35.23,0 c 22.145,6.2969 52.063,25.2422 57.16,45.0782 l 0,0 z M 169.18,87.5 c 2.894,5.332 9.863,7.0117 14.613,0.6914 2.031,-2.7226 1.148,-9.9102 -7.191,-18.9258 -6.004,5.5196 -10.481,12.5508 -7.422,18.2344 l 0,0 z M 309.691,58.2617 c -2.949,4.1406 -3.964,6.5508 -2.41,10.586 1.489,3.8281 4.582,7.3242 7.821,12.1289 5.086,-19.836 35.035,-38.7813 57.16,-45.0782 l -35.246,0 c -9.106,4.9805 -20.645,13.0196 -27.325,22.3633 l 0,0 z m 12.133,29.9297 c 4.778,6.3203 11.727,4.6406 14.629,-0.6914 3.059,-5.6836 -1.398,-12.7148 -7.426,-18.2344 -8.312,9.0156 -9.191,16.2032 -7.203,18.9258 l 0,0 z M 435.82,37.6953 c -3.785,-1.1055 -8.343,-1.7969 -15.183,-1.7969 l -8.512,0 c -29.242,0.5664 -59.328,9.2696 -77.754,28.1524 25.469,25.6758 -4.445,46.8162 -20.633,25.039 -5.039,-6.832 -9.074,-11.6406 -12.582,-18.2421 -2.84,-5.3399 -0.707,-10.6797 5.621,-18.875 3.465,-4.5235 12.086,-11.4961 19.137,-16.0743 l -146.172,0 c 7.02,4.5782 15.633,11.5508 19.141,16.0743 6.277,8.1953 8.445,13.5351 5.625,18.875 -3.496,6.6015 -7.567,11.4101 -12.61,18.2421 -16.179,21.7772 -46.082,0.6368 -20.609,-25.039 C 152.859,45.168 122.793,36.4648 93.5156,35.8984 l -8.0625,0 c -6.8593,0 -11.4219,0.6914 -15.1797,1.7969 -6.0703,1.4649 -7.414,-1.1055 -4.1445,-11.5742 C 68.375,19.1602 70.1562,7.8125 70.9688,0 L 435.156,0 c 0.766,7.8125 2.559,19.1602 4.805,26.1211 3.258,10.4687 1.914,13.0391 -4.141,11.5742 l 0,0"
             id="path38"
             style="fill:#231f20;fill-opacity:1;fill-rule:nonzero;stroke:none" /><path
             d="m 119.285,14.7148 c -0.105,0 -0.129,0.0704 -0.105,0.1563 l 2.613,6.9648 c 0.023,0.0664 0.082,0.168 0.148,0.168 0.051,0 0.075,-0.1016 0.079,-0.168 l 2.582,-6.9648 c 0.039,-0.0859 0,-0.1563 -0.114,-0.1563 l -5.203,0 0,0 z m 5.621,-1.0234 c 0.071,0 0.168,-0.0508 0.207,-0.1562 l 0.949,-2.5704 c 0.106,-0.25 -0.023,-0.457 -0.179,-0.5039 -0.199,0 -0.309,-0.0312 -0.309,-0.1875 0,-0.1757 0.254,-0.1757 0.649,-0.1757 1.636,-0.0079 3.191,-0.0079 3.937,-0.0079 0.742,0 0.938,0.0079 0.938,0.1836 0,0.1563 -0.102,0.1875 -0.235,0.1875 -0.265,0 -0.586,0 -0.906,0.0664 -0.437,0.125 -1.043,0.3789 -1.82,2.2657 -1.34,3.1718 -4.676,11.6601 -5.153,12.832 -0.218,0.4688 -0.339,0.6641 -0.527,0.6641 -0.223,0 -0.355,-0.2422 -0.582,-0.8594 l -5.242,-13.0781 c -0.406,-1.0352 -0.813,-1.7266 -1.754,-1.8555 -0.191,-0.0352 -0.477,-0.0352 -0.676,-0.0352 -0.144,0 -0.242,-0.0312 -0.242,-0.1875 0,-0.1757 0.16,-0.1836 0.394,-0.1836 1.106,0 2.231,0.0079 2.461,0.0079 0.649,0 1.543,-0.0079 2.223,-0.0079 0.203,0 0.352,0.0079 0.352,0.1836 0,0.1563 -0.071,0.1875 -0.325,0.1875 l -0.312,0 c -0.641,0 -0.82,0.2539 -0.82,0.6524 0,0.2344 0.093,0.7305 0.296,1.2383 l 0.426,1.164 c 0.051,0.125 0.098,0.1758 0.184,0.1758 l 6.066,0 0,0"
             id="path40"
             style="fill:#231f20;fill-opacity:1;fill-rule:nonzero;stroke:none" /><path
             d="m 135.309,16.7461 c 0,-3.0078 0.777,-4.5508 1.847,-5.5273 1.516,-1.36724 3.508,-1.41411 4.614,-1.41411 1.359,0 2.875,0.18359 4.324,1.49611 1.758,1.4609 2.004,3.9336 2.004,6.2656 l 0,2.2305 c 0,3.1406 0,3.75 0.039,4.375 0.051,0.7304 0.179,1.1015 0.746,1.1992 0.265,0.0273 0.398,0.0586 0.613,0.0586 0.262,0 0.371,0.0664 0.371,0.1953 0,0.1562 -0.14,0.1836 -0.433,0.1836 -0.786,0 -2.122,-0.0274 -2.403,-0.0274 0,0 -1.301,0.0274 -2.347,0.0274 -0.297,0 -0.461,-0.0274 -0.461,-0.1836 0,-0.1289 0.14,-0.1953 0.367,-0.1953 0.211,0 0.582,-0.0313 0.746,-0.0586 0.684,-0.1289 0.852,-0.4688 0.891,-1.1992 0.039,-0.625 0.039,-1.2344 0.039,-4.375 l 0,-2.6211 c 0,-2.1485 -0.055,-4.0313 -1.188,-5.1563 -0.855,-0.8281 -1.976,-1.1523 -2.894,-1.1523 -0.715,0 -1.661,0.1289 -2.598,0.8594 -1.016,0.8515 -1.625,2.1211 -1.625,5.1367 l 0,2.9336 c 0,3.1406 0,3.75 0.023,4.375 0.059,0.7304 0.243,1.1015 0.782,1.1992 0.254,0.0273 0.382,0.0586 0.625,0.0586 0.195,0 0.336,0.0664 0.336,0.1953 0,0.1562 -0.176,0.1836 -0.473,0.1836 -0.734,0 -2.07,-0.0274 -2.559,-0.0274 -0.633,0 -1.949,0.0274 -3.039,0.0274 -0.301,0 -0.476,-0.0274 -0.476,-0.1836 0,-0.1289 0.125,-0.1953 0.359,-0.1953 0.305,0 0.641,-0.0313 0.809,-0.0586 0.707,-0.1289 0.855,-0.4688 0.91,-1.1992 0.051,-0.625 0.051,-1.2344 0.051,-4.375 l 0,-3.0508"
             id="path42"
             style="fill:#231f20;fill-opacity:1;fill-rule:nonzero;stroke:none" /><path
             d="m 159.512,20.1367 c 0,1.6094 0,3.4375 0.004,4.1602 0,0.2226 0.078,0.332 0.254,0.4101 0.179,0.0664 0.929,0.1563 1.347,0.1563 1.649,0 4.043,-0.2539 5.945,-2.1094 0.903,-0.8516 2.004,-2.5508 2.004,-5.1875 0,-2.1562 -0.421,-4.0586 -1.769,-5.2148 -1.258,-1.0508 -2.656,-1.4922 -4.777,-1.4922 -1.657,0 -2.465,0.457 -2.75,0.8281 -0.153,0.2539 -0.204,1.0547 -0.219,1.5937 -0.035,0.3985 -0.039,2.0196 -0.039,4.2071 l 0,2.6484 z m -2.602,-4.0039 c 0,-1.9219 0,-3.5937 -0.117,-4.4453 -0.07,-0.6133 -0.168,-1.0625 -0.594,-1.1602 -0.168,-0.0312 -0.433,-0.0664 -0.738,-0.0664 -0.262,0 -0.348,-0.0781 -0.348,-0.1875 0,-0.1757 0.141,-0.1836 0.422,-0.1836 0.848,0 2.141,0.0079 2.617,0.0079 1.043,0 2.926,-0.21489 4.446,-0.21489 3.851,0 6.007,1.47269 6.992,2.46879 1.172,1.1836 2.262,3.1836 2.262,5.8007 0,2.4922 -0.989,4.2188 -2.043,5.293 -2.243,2.3633 -5.75,2.3633 -8.332,2.3633 -1.247,0 -2.555,-0.0274 -3.207,-0.0274 -0.594,0 -1.887,0.0274 -3.016,0.0274 -0.297,0 -0.442,-0.0274 -0.442,-0.1836 0,-0.1289 0.122,-0.1953 0.325,-0.1953 0.324,0 0.668,-0.0313 0.847,-0.0586 0.676,-0.1289 0.832,-0.4688 0.871,-1.1992 0.055,-0.625 0.055,-1.2344 0.055,-4.375 l 0,-3.6641"
             id="path44"
             style="fill:#231f20;fill-opacity:1;fill-rule:nonzero;stroke:none" /><path
             d="m 179.918,14.7148 c -0.055,0 -0.106,0.0704 -0.055,0.1563 l 2.594,6.9648 c 0.016,0.0664 0.078,0.168 0.117,0.168 0.063,0 0.09,-0.1016 0.102,-0.168 l 2.566,-6.9648 c 0.039,-0.0859 0,-0.1563 -0.101,-0.1563 l -5.223,0 0,0 z m 5.625,-1.0234 c 0.109,0 0.164,-0.0508 0.203,-0.1562 l 0.992,-2.5704 c 0.086,-0.25 -0.062,-0.457 -0.218,-0.5039 -0.192,0 -0.29,-0.0312 -0.29,-0.1875 0,-0.1757 0.262,-0.1757 0.629,-0.1757 1.688,-0.0079 3.203,-0.0079 3.922,-0.0079 0.797,0 0.989,0.0079 0.989,0.1836 0,0.1563 -0.129,0.1875 -0.286,0.1875 -0.238,0 -0.562,0 -0.882,0.0664 -0.442,0.125 -1.016,0.3789 -1.79,2.2657 -1.363,3.1718 -4.687,11.6601 -5.207,12.832 -0.207,0.4688 -0.339,0.6641 -0.515,0.6641 -0.219,0 -0.309,-0.2422 -0.555,-0.8594 l -5.262,-13.0781 c -0.398,-1.0352 -0.812,-1.7266 -1.777,-1.8555 -0.125,-0.0352 -0.441,-0.0352 -0.629,-0.0352 -0.148,0 -0.262,-0.0312 -0.262,-0.1875 0,-0.1757 0.141,-0.1836 0.411,-0.1836 1.089,0 2.218,0.0079 2.461,0.0079 0.644,0 1.543,-0.0079 2.195,-0.0079 0.234,0 0.355,0.0079 0.355,0.1836 0,0.1563 -0.07,0.1875 -0.304,0.1875 l -0.328,0 c -0.622,0 -0.817,0.2539 -0.817,0.6524 0,0.2344 0.106,0.7305 0.285,1.2383 l 0.438,1.164 c 0.039,0.125 0.094,0.1758 0.207,0.1758 l 6.035,0 0,0"
             id="path46"
             style="fill:#231f20;fill-opacity:1;fill-rule:nonzero;stroke:none" /><path
             d="m 205.895,23.6992 c 0.652,0.9297 1.054,1.5156 1.527,1.6406 0.297,0.0586 0.551,0.0899 0.742,0.0899 0.211,0 0.336,0.0781 0.336,0.1953 0,0.1562 -0.133,0.1836 -0.359,0.1836 -0.782,0 -1.621,-0.0274 -2.055,-0.0274 -0.371,0 -1.258,0.0274 -2.082,0.0274 -0.277,0 -0.434,-0.0274 -0.434,-0.1836 0,-0.1289 0.153,-0.1953 0.235,-0.1953 0.183,0 0.468,0 0.703,-0.0586 0.195,-0.0313 0.336,-0.2266 0.336,-0.332 0,-0.1758 -0.039,-0.5196 -0.219,-0.8282 -0.309,-0.5781 -2.238,-3.4687 -2.852,-4.3867 -0.8,1.4141 -1.738,2.9297 -2.636,4.6289 -0.121,0.2031 -0.215,0.4492 -0.215,0.586 0,0.1054 0.062,0.2539 0.258,0.332 0.16,0.0273 0.445,0.0586 0.586,0.0586 0.144,0 0.285,0.0664 0.285,0.1953 0,0.1562 -0.141,0.1836 -0.41,0.1836 -0.758,0 -1.95,-0.0274 -2.239,-0.0274 -0.988,0 -2.679,0.0274 -3.156,0.0274 -0.281,0 -0.414,-0.0274 -0.414,-0.1563 0,-0.1445 0.07,-0.2226 0.195,-0.2226 0.219,0 0.567,-0.0313 0.891,-0.1367 0.742,-0.2032 1.219,-0.7149 1.703,-1.5625 l 3.617,-5.9297 -3.988,-5.6719 c -0.707,-1.0156 -1.105,-1.4141 -1.695,-1.5742 -0.336,-0.0938 -0.653,-0.0938 -0.793,-0.0938 -0.172,0 -0.285,-0.0781 -0.285,-0.1875 0,-0.1757 0.093,-0.1836 0.308,-0.1836 l 0.371,0 c 0.332,0 1.328,0.0079 1.723,0.0079 0.535,0 1.851,-0.0079 1.973,-0.0079 l 0.367,0 c 0.277,0 0.429,0.0079 0.429,0.1836 0,0.1094 -0.14,0.1875 -0.265,0.1875 -0.164,0 -0.348,0 -0.461,0.0352 -0.192,0.0312 -0.402,0.168 -0.418,0.3437 -0.02,0.2344 0.101,0.5391 0.285,0.8711 l 3.094,4.9883 c 0.953,-1.5703 2.168,-3.625 3.301,-5.6367 0.152,-0.3008 0.062,-0.4883 -0.051,-0.5078 -0.192,-0.0469 -0.309,-0.0938 -0.309,-0.2149 0,-0.164 0.18,-0.2421 0.754,-0.2421 1.594,-0.0079 3.215,-0.0079 3.711,-0.0079 l 0.621,0 c 0.238,0 0.41,0.0079 0.41,0.1836 0,0.1563 -0.109,0.1875 -0.254,0.1875 -0.203,0 -0.437,0 -0.785,0.1133 -0.562,0.1563 -0.886,0.4219 -1.234,0.8985 -0.5,0.6562 -3.887,6.289 -4.559,7.3046 l 3.407,4.9219 0,0"
             id="path48"
             style="fill:#231f20;fill-opacity:1;fill-rule:nonzero;stroke:none" /><path
             d="m 234.336,14.7148 c -0.106,0 -0.117,0.0704 -0.106,0.1563 l 2.59,6.9648 c 0.039,0.0664 0.071,0.168 0.149,0.168 0.039,0 0.078,-0.1016 0.097,-0.168 l 2.661,-6.9921 c 0.023,-0.0586 0,-0.129 -0.118,-0.129 l -5.273,0 0,0 z m 5.621,-1.0234 c 0.117,0 0.164,-0.0508 0.203,-0.1562 l 0.953,-2.5704 c 0.102,-0.25 -0.051,-0.457 -0.191,-0.5039 -0.203,0 -0.297,-0.0312 -0.297,-0.1875 0,-0.1757 0.258,-0.1757 0.629,-0.1757 1.66,-0.0079 3.172,-0.0079 3.934,-0.0079 0.769,0 0.949,0.0079 0.949,0.1836 0,0.1563 -0.106,0.1875 -0.262,0.1875 -0.246,0 -0.563,0 -0.879,0.0664 -0.426,0.125 -1.047,0.3789 -1.828,2.2657 -1.352,3.1718 -4.672,11.6601 -5.148,12.832 -0.208,0.4688 -0.344,0.6641 -0.547,0.6641 -0.207,0 -0.348,-0.2422 -0.582,-0.8594 L 231.66,12.3516 c -0.406,-1.0352 -0.797,-1.7266 -1.781,-1.8555 -0.137,-0.0352 -0.449,-0.0352 -0.625,-0.0352 -0.16,0 -0.25,-0.0312 -0.25,-0.1875 0,-0.1757 0.133,-0.1836 0.391,-0.1836 1.097,0 2.226,0.0079 2.453,0.0079 0.652,0 1.558,-0.0079 2.199,-0.0079 0.265,0 0.351,0.0079 0.351,0.1836 0,0.1563 -0.039,0.1875 -0.304,0.1875 l -0.293,0 c -0.66,0 -0.84,0.2539 -0.84,0.6524 0,0.2344 0.09,0.7305 0.32,1.2383 l 0.418,1.164 c 0.047,0.125 0.102,0.1758 0.188,0.1758 l 6.07,0 0,0"
             id="path50"
             style="fill:#231f20;fill-opacity:1;fill-rule:nonzero;stroke:none" /><path
             d="m 252.742,16.1328 c 0,-1.9219 0,-3.5937 -0.097,-4.4453 -0.067,-0.6133 -0.196,-1.0625 -0.59,-1.1602 -0.196,-0.0312 -0.45,-0.0664 -0.754,-0.0664 -0.25,0 -0.348,-0.0781 -0.348,-0.1875 0,-0.1757 0.176,-0.1836 0.41,-0.1836 0.844,0 2.176,0.0079 2.664,0.0079 0.567,0 1.879,-0.0079 3.27,-0.0079 0.215,0 0.363,0.0079 0.363,0.1836 0,0.1094 -0.098,0.1875 -0.332,0.1875 -0.301,0 -0.769,0.0352 -1.039,0.0664 -0.629,0.0977 -0.769,0.5469 -0.844,1.1329 -0.093,0.8789 -0.093,2.5507 -0.093,4.4726 l 0,8.5234 2.621,-0.0468 c 1.863,-0.0586 2.425,-0.625 2.476,-1.1914 l 0,-0.2266 c 0.055,-0.3086 0.094,-0.4102 0.235,-0.4102 0.113,0 0.156,0.1485 0.191,0.3516 0,0.5391 0.063,1.957 0.063,2.3945 0,0.3125 -0.016,0.4297 -0.168,0.4297 -0.172,0 -0.665,-0.1758 -1.993,-0.1758 l -8.254,0 c -0.687,0 -1.476,0.0274 -2.082,0.0586 -0.519,0.0664 -0.73,0.2813 -0.89,0.2813 -0.133,0 -0.184,-0.125 -0.25,-0.4063 -0.059,-0.1601 -0.422,-2.0429 -0.422,-2.375 0,-0.2734 0.035,-0.3515 0.176,-0.3515 0.125,0 0.172,0.0781 0.218,0.2344 0.039,0.1953 0.145,0.4492 0.356,0.7617 0.324,0.4687 0.812,0.5351 2.035,0.5937 l 3.078,0.0781 0,-8.5234"
             id="path52"
             style="fill:#231f20;fill-opacity:1;fill-rule:nonzero;stroke:none" /><path
             d="m 288.98,17.8008 c 0,0.1289 0.043,0.1953 0.18,0.1953 0.332,0 2.543,0 3.07,-0.0977 0.625,-0.0586 0.93,-0.4375 1.067,-0.7226 0.062,-0.25 0.109,-0.4766 0.109,-0.6641 0,-0.125 0.032,-0.2812 0.188,-0.2812 0.179,0 0.179,0.2226 0.179,0.4101 0,0.1563 0.059,1.1211 0.106,1.5117 0.035,0.6758 0.16,1.1641 0.16,1.3125 0,0.086 -0.035,0.1719 -0.125,0.1719 -0.141,0 -0.18,-0.0937 -0.262,-0.2226 -0.214,-0.2539 -0.5,-0.3516 -0.922,-0.3516 -0.281,-0.0313 -0.562,-0.0313 -0.91,-0.0313 l -2.66,-0.0273 c -0.14,0 -0.18,0.0586 -0.18,0.2227 l 0,5.1679 c 0,0.2344 0.079,0.3125 0.219,0.3125 l 3.188,-0.0781 c 0.773,0 1.222,-0.332 1.386,-0.6172 0.114,-0.3008 0.114,-0.5937 0.114,-0.789 0.027,-0.2344 0.066,-0.3399 0.215,-0.3399 0.132,0 0.183,0.125 0.199,0.2813 0.051,0.2539 0.062,1.4921 0.086,1.6992 0.09,0.5351 0.183,0.789 0.183,0.9453 0,0.0976 -0.043,0.1875 -0.132,0.1875 -0.118,0 -0.204,-0.0899 -0.336,-0.1563 -0.215,-0.0312 -0.45,-0.0312 -0.856,-0.0586 -0.488,0 -4.711,0 -5.488,0 -0.613,0 -1.918,0.0274 -2.996,0.0274 -0.348,0 -0.469,-0.0274 -0.469,-0.1836 0,-0.1289 0.105,-0.1953 0.312,-0.1953 0.321,0 0.684,-0.0313 0.844,-0.0586 0.68,-0.1289 0.824,-0.4688 0.863,-1.1992 0.059,-0.625 0.059,-1.2344 0.059,-4.375 l 0,-3.6641 c 0,-2.0117 0,-3.5937 -0.101,-4.4453 -0.086,-0.6133 -0.176,-1.0625 -0.61,-1.1602 -0.168,-0.0312 -0.418,-0.0664 -0.734,-0.0664 -0.27,0 -0.321,-0.0781 -0.321,-0.1875 0,-0.1757 0.157,-0.1836 0.45,-0.1836 0.785,0 2.09,0.0079 2.617,0.0079 0.555,0 1.875,-0.0079 3.156,-0.0079 0.332,0 0.465,0.0079 0.465,0.1836 0,0.1094 -0.094,0.1875 -0.316,0.1875 -0.301,0 -0.762,0.0352 -1.055,0.0664 -0.637,0.0977 -0.762,0.5469 -0.82,1.1602 -0.122,0.8516 -0.122,2.4336 -0.122,4.4453 l 0,1.668"
             id="path54"
             style="fill:#231f20;fill-opacity:1;fill-rule:nonzero;stroke:none" /><path
             d="m 302.312,16.1328 c 0,-2.043 0,-3.6836 -0.078,-4.5703 -0.043,-0.5664 -0.203,-0.9375 -0.613,-1.0352 -0.172,-0.0312 -0.437,-0.0664 -0.723,-0.0664 -0.269,0 -0.347,-0.0781 -0.347,-0.1875 0,-0.1757 0.133,-0.1836 0.422,-0.1836 0.836,0 2.125,0.0079 2.613,0.0079 0.559,0 1.883,-0.0079 3.254,-0.0079 0.207,0 0.39,0.0079 0.39,0.1836 0,0.1094 -0.121,0.1875 -0.32,0.1875 -0.351,0 -0.812,0.0352 -1.094,0.0664 -0.628,0.0977 -0.757,0.4688 -0.812,1.0235 -0.078,0.8984 -0.078,2.539 -0.078,4.582 l 0,3.6641 c 0,3.1406 0,3.75 0.019,4.375 0.059,0.7304 0.192,1.1015 0.782,1.1992 0.23,0.0273 0.41,0.0586 0.625,0.0586 0.207,0 0.324,0.0664 0.324,0.2226 0,0.1289 -0.156,0.1563 -0.446,0.1563 -0.761,0 -2.007,-0.0274 -2.546,-0.0274 -0.586,0 -1.875,0.0274 -2.668,0.0274 -0.364,0 -0.52,-0.0274 -0.52,-0.1563 0,-0.1562 0.133,-0.2226 0.348,-0.2226 0.23,0 0.519,-0.0313 0.718,-0.0586 0.469,-0.1289 0.672,-0.4688 0.723,-1.1992 0.027,-0.625 0.027,-1.2344 0.027,-4.375 l 0,-3.6641"
             id="path56"
             style="fill:#231f20;fill-opacity:1;fill-rule:nonzero;stroke:none" /><path
             d="m 317.371,20.1367 c 0,1.6094 0,3.4375 0,4.1602 0,0.2226 0.094,0.332 0.285,0.4101 0.153,0.0664 0.914,0.1563 1.332,0.1563 1.649,0 4.024,-0.2539 5.95,-2.1094 0.874,-0.8516 1.972,-2.5508 1.972,-5.1875 0,-2.1562 -0.41,-4.0586 -1.754,-5.2148 -1.246,-1.0508 -2.672,-1.4922 -4.769,-1.4922 -1.657,0 -2.473,0.457 -2.731,0.8281 -0.168,0.2539 -0.207,1.0547 -0.246,1.5937 -0.039,0.3985 -0.039,2.0196 -0.039,4.2071 l 0,2.6484 z m -2.582,-4.0039 c 0,-1.9219 0,-3.5937 -0.141,-4.4453 -0.046,-0.6133 -0.168,-1.0625 -0.589,-1.1602 -0.204,-0.0312 -0.446,-0.0664 -0.758,-0.0664 -0.215,0 -0.34,-0.0781 -0.34,-0.1875 0,-0.1757 0.164,-0.1836 0.445,-0.1836 0.84,0 2.156,0.0079 2.629,0.0079 1.027,0 2.918,-0.21489 4.434,-0.21489 3.828,0 6.011,1.47269 6.969,2.46879 1.171,1.1836 2.289,3.1836 2.289,5.8007 0,2.4922 -1,4.2188 -2.055,5.293 -2.246,2.3633 -5.738,2.3633 -8.352,2.3633 -1.218,0 -2.566,-0.0274 -3.183,-0.0274 -0.575,0 -1.891,0.0274 -3.012,0.0274 -0.336,0 -0.465,-0.0274 -0.465,-0.1836 0,-0.1289 0.129,-0.1953 0.371,-0.1953 0.27,0 0.629,-0.0313 0.824,-0.0586 0.676,-0.1289 0.836,-0.4688 0.887,-1.1992 0.047,-0.625 0.047,-1.2344 0.047,-4.375 l 0,-3.6641"
             id="path58"
             style="fill:#231f20;fill-opacity:1;fill-rule:nonzero;stroke:none" /><path
             d="m 337.016,16.1328 c 0,-1.9219 0,-3.5937 -0.086,-4.4453 -0.106,-0.6133 -0.192,-1.0625 -0.602,-1.1602 -0.195,-0.0312 -0.449,-0.0664 -0.769,-0.0664 -0.239,0 -0.325,-0.0781 -0.325,-0.1875 0,-0.1757 0.164,-0.1836 0.426,-0.1836 0.832,0 2.145,0.0079 2.606,0.0079 1.246,0 2.652,-0.10942 5.789,-0.10942 0.757,0 0.972,0 1.09,0.56642 0.121,0.4414 0.285,1.8281 0.285,2.3164 0,0.2031 0,0.3984 -0.164,0.3984 -0.133,0 -0.184,-0.125 -0.227,-0.332 -0.144,-0.8398 -0.394,-1.3047 -0.941,-1.5586 -0.543,-0.2383 -1.403,-0.2383 -1.946,-0.2383 -2.117,0 -2.464,0.3321 -2.504,1.75 -0.007,0.6172 0,2.5196 0,3.2422 l 0,1.6289 c 0,0.1094 0.032,0.2071 0.149,0.2071 0.496,0 2.523,-0.0391 2.937,-0.0704 0.766,-0.0586 1.075,-0.3789 1.176,-0.789 0.043,-0.2852 0.043,-0.5664 0.106,-0.7539 0,-0.125 0,-0.1836 0.144,-0.1836 0.192,0 0.192,0.2148 0.192,0.3711 0,0.1562 0.046,0.9765 0.086,1.3867 0.054,1.0742 0.171,1.4258 0.171,1.543 0,0.125 -0.078,0.164 -0.14,0.164 -0.117,0 -0.172,-0.0937 -0.324,-0.2734 -0.196,-0.2031 -0.512,-0.3008 -1.004,-0.3008 -0.5,-0.0586 -2.903,-0.0586 -3.321,-0.0586 -0.14,0 -0.172,0.0586 -0.172,0.2344 l 0,5.2812 c 0,0.1367 0.04,0.1875 0.172,0.1875 0.395,0 2.578,-0.0312 2.938,-0.0781 1.051,-0.1094 1.258,-0.3633 1.387,-0.7422 0.117,-0.2539 0.152,-0.5937 0.152,-0.7539 0,-0.1953 0.055,-0.3125 0.172,-0.3125 0.14,0 0.176,0.1563 0.187,0.2461 0.051,0.2734 0.09,1.1719 0.094,1.3867 0.062,0.9453 0.188,1.1992 0.188,1.3555 0,0.0976 -0.02,0.1875 -0.149,0.1875 -0.082,0 -0.234,-0.0781 -0.297,-0.0899 -0.14,-0.0664 -0.476,-0.0976 -0.902,-0.125 -0.406,0 -4.559,0 -5.223,0 -0.562,0 -1.875,0.0274 -2.969,0.0274 -0.296,0 -0.46,-0.0274 -0.46,-0.1836 0,-0.1289 0.117,-0.1953 0.343,-0.1953 0.278,0 0.641,-0.0313 0.789,-0.0586 0.715,-0.1289 0.871,-0.4688 0.91,-1.1992 0.036,-0.625 0.036,-1.2344 0.036,-4.375 l 0,-3.6641"
             id="path60"
             style="fill:#231f20;fill-opacity:1;fill-rule:nonzero;stroke:none" /><path
             d="m 355.805,19.7969 c 0,3.1406 0,3.75 0.035,4.375 0.039,0.7304 0.207,1.1015 0.762,1.1992 0.285,0.0273 0.609,0.0586 0.82,0.0586 0.254,0 0.355,0.0664 0.355,0.1953 0,0.1562 -0.136,0.1836 -0.422,0.1836 -0.796,0 -2.32,-0.0274 -2.835,-0.0274 -0.579,0 -1.86,0.0274 -2.84,0.0274 -0.332,0 -0.434,-0.0274 -0.434,-0.1836 0,-0.1289 0.094,-0.1953 0.309,-0.1953 0.316,0 0.535,-0.0313 0.715,-0.0586 0.679,-0.1289 0.82,-0.4688 0.882,-1.1992 0.039,-0.625 0.039,-1.2344 0.039,-4.375 l 0,-3.6641 c 0,-1.9219 0,-3.5937 -0.101,-4.4453 -0.07,-0.6133 -0.164,-1.0625 -0.625,-1.1602 -0.156,-0.0312 -0.422,-0.0664 -0.731,-0.0664 -0.269,0 -0.339,-0.0781 -0.339,-0.1875 0,-0.1757 0.144,-0.1836 0.425,-0.1836 0.84,0 2.121,0.0079 2.618,0.0079 1.652,0 3.085,-0.10942 6.066,-0.10942 1.078,0 1.191,0.10942 1.308,0.58592 0.157,0.6172 0.305,2.168 0.305,2.4141 0,0.2422 0,0.3398 -0.152,0.3398 -0.164,0 -0.207,-0.125 -0.207,-0.3125 -0.063,-0.4101 -0.281,-0.9726 -0.57,-1.2578 -0.52,-0.539 -1.34,-0.5664 -2.465,-0.5664 -1.594,0 -2.125,0.125 -2.493,0.4414 -0.425,0.3867 -0.425,1.8242 -0.425,4.5 l 0,3.6641"
             id="path62"
             style="fill:#231f20;fill-opacity:1;fill-rule:nonzero;stroke:none" /><path
             d="m 368.785,16.1328 c 0,-2.043 0,-3.6836 -0.078,-4.5703 -0.039,-0.5664 -0.199,-0.9375 -0.617,-1.0352 -0.176,-0.0312 -0.422,-0.0664 -0.766,-0.0664 -0.234,0 -0.312,-0.0781 -0.312,-0.1875 0,-0.1757 0.168,-0.1836 0.398,-0.1836 0.871,0 2.145,0.0079 2.629,0.0079 0.57,0 1.875,-0.0079 3.301,-0.0079 0.172,0 0.39,0.0079 0.39,0.1836 0,0.1094 -0.14,0.1875 -0.375,0.1875 -0.296,0 -0.765,0.0352 -1.054,0.0664 -0.617,0.0977 -0.793,0.4688 -0.832,1.0235 -0.102,0.8984 -0.102,2.539 -0.102,4.582 l 0,3.6641 c 0,3.1406 0,3.75 0.051,4.375 0.051,0.7304 0.227,1.1015 0.785,1.1992 0.27,0.0273 0.387,0.0586 0.613,0.0586 0.243,0 0.325,0.0664 0.325,0.2226 0,0.1289 -0.157,0.1563 -0.414,0.1563 -0.813,0 -2.043,-0.0274 -2.547,-0.0274 -0.625,0 -1.899,0.0274 -2.731,0.0274 -0.332,0 -0.472,-0.0274 -0.472,-0.1563 0,-0.1562 0.113,-0.2226 0.304,-0.2226 0.27,0 0.567,-0.0313 0.762,-0.0586 0.465,-0.1289 0.68,-0.4688 0.707,-1.1992 0.035,-0.625 0.035,-1.2344 0.035,-4.375 l 0,-3.6641"
             id="path64"
             style="fill:#231f20;fill-opacity:1;fill-rule:nonzero;stroke:none" /><path
             d="m 383.141,9.80469 c 1.093,0 2.285,0.18359 3.324,0.84761 1.515,0.9571 1.953,2.4219 1.953,3.625 0,1.9532 -0.922,3.3672 -3.43,5.2735 l -0.59,0.4765 c -1.683,1.2891 -2.195,2.0313 -2.195,2.9805 0,1.2578 0.938,2.1367 2.481,2.1367 1.339,0 1.933,-0.625 2.254,-1.0234 0.464,-0.5469 0.558,-1.1836 0.558,-1.3672 0,-0.2539 0.102,-0.3437 0.219,-0.3437 0.152,0 0.23,0.1406 0.23,0.5976 0,1.6211 0.078,2.2344 0.078,2.5 0,0.1445 -0.101,0.207 -0.289,0.2734 -0.539,0.125 -1.406,0.3399 -2.773,0.3399 -2.875,0 -4.801,-1.668 -4.801,-3.9336 0,-1.6992 0.758,-3.1563 3.07,-4.9531 l 0.989,-0.7227 c 1.719,-1.3555 2.008,-2.332 2.008,-3.3672 0,-1.0742 -0.895,-2.3633 -2.805,-2.3633 -1.27,0 -2.516,0.5665 -2.961,2.1094 -0.117,0.3789 -0.207,0.7891 -0.207,1.0352 0,0.1953 0,0.4101 -0.188,0.4101 -0.148,0 -0.226,-0.2656 -0.254,-0.5664 -0.023,-0.332 -0.109,-1.5742 -0.109,-2.707 0,-0.4883 0.063,-0.6016 0.402,-0.7227 0.879,-0.41011 1.821,-0.53511 3.036,-0.53511 l 0,0"
             id="path66"
             style="fill:#231f20;fill-opacity:1;fill-rule:nonzero;stroke:none" /><path
             d="m 253.043,373.512 c -10.891,0 -23.164,-2.571 -32.629,-6.707 0.152,2.105 0.863,3.933 2.215,5.547 5.5,6.613 19.809,8.976 30.414,8.976 10.609,0 24.926,-2.363 30.414,-8.976 1.34,-1.614 2.063,-3.434 2.227,-5.52 -9.469,4.148 -21.586,6.68 -32.641,6.68 l 0,0 z m 18.543,-15.367 -3.379,7.789 c 5.133,-0.996 10.055,-2.489 14.355,-4.289 l 1.965,-7.997 c -3.183,1.282 -7.589,3.055 -12.941,4.497 l 0,0 z m -31.934,1.207 -5.789,5.707 c 4.75,1.195 9.746,1.984 14.645,2.324 l 3.469,-6.715 c -4.415,-0.055 -8.508,-0.574 -12.325,-1.316 l 0,0 z m -18.851,-6.043 -1.696,-0.692 c -2.308,-0.922 -3.902,-0.191 -4.48,0.942 -0.602,1.207 -0.234,3.195 2.645,4.964 0.386,0.211 0.781,0.426 1.191,0.649 l 5.516,-4.539 c -1.172,-0.496 -2.223,-0.934 -3.176,-1.324 l 0,0 z m 32.242,40.964 7.848,-5.687 c -3.356,0.309 -6.164,0.383 -7.848,0.383 -1.695,0 -4.496,-0.074 -7.855,-0.383 l 7.855,5.687 0,0 z m -8.949,20.766 c -3.196,6.957 -4.098,16.074 5.789,11.684 l 0.785,-11.684 -6.574,0 0,0 z m 7.511,25.223 1.438,-1.008 1.41,1.008 5.711,4.136 -3.277,-11.011 c -0.117,-0.051 -0.25,-0.059 -0.328,-0.102 -0.575,1.387 -1.942,2.309 -3.516,2.309 -1.566,0 -2.906,-0.922 -3.504,-2.309 -0.113,0.043 -0.223,0.051 -0.336,0.102 l -3.273,11.011 5.675,-4.136 0,0 z m 8.438,-45.067 -5.59,4.047 -1.41,1.039 -1.438,-1.039 -5.574,-4.047 3.633,11.746 6.766,0 3.613,-11.746 0,0 z m 1.949,19.844 -6.586,0 0.793,11.684 c 9.879,4.39 8.989,-4.727 5.793,-11.684 l 0,0 z m -33.062,-2.738 4.054,5.574 1.02,1.445 -1.02,1.403 -4.054,5.601 8.297,-2.554 c 0.461,-3.625 1.269,-6.028 2.203,-8.235 l -10.5,-3.234 0,0 z m 39.957,11.469 8.285,2.554 -4.07,-5.601 -1.032,-1.403 1.032,-1.445 4.07,-5.574 -10.516,3.234 c 0.934,2.207 1.742,4.61 2.231,8.235 l 0,0 z m 51.695,14.316 c 0.188,3.105 -5.609,5.492 -7.062,5.621 -2.415,0.18 -5.493,-4.941 -8.665,-8.113 -2.804,14.949 -1.347,21.363 0.219,27.98 6.313,-11.469 14.844,-13.922 19.344,-13.355 -15.172,12.121 -12.555,23.14 -17.188,23.726 -2.628,0.274 -4.527,0.102 -5.867,0.102 -5.332,0 -6.058,-10.336 -6.746,-15.067 -3.457,6.415 -6.859,11.805 -12.699,19.227 -5.594,14.379 -12.453,10.793 -19.43,17.316 5.41,-8.222 1.02,-13.269 13.59,-19.238 3.277,-3.121 7.102,-7.984 9.668,-11.914 -2.109,-2.781 -3.543,-4.41 -5.508,-6.297 -1.554,-2.347 -2.347,-11.25 -7.191,-17.976 7.191,3.16 10.015,7.523 12.574,11.816 22.707,-17.141 4.274,-60.902 -0.969,-70.508 -4.996,3.367 -11.398,5.27 -17.214,6.309 l -0.618,1.949 -5.332,17.277 2.473,0 c 2.836,0 3.5,1.891 3.043,3.418 l 15.656,-4.836 6.942,-2.121 -4.25,5.856 -7.282,10.062 7.282,10.012 4.25,5.891 -6.942,-2.133 -14.105,-4.356 c -0.965,3.2 -3.575,4.739 -6.477,5.141 l 4.742,15.984 2.032,6.86 -5.79,-4.215 -10.019,-7.281 -10.055,7.281 -5.761,4.215 2.035,-6.86 4.742,-15.984 c -2.844,-0.402 -5.508,-1.941 -6.5,-5.141 l -14.102,4.356 -6.918,2.133 4.254,-5.891 7.282,-10.012 -7.282,-10.062 -4.254,-5.856 6.918,2.121 15.743,4.844 c -0.469,-1.535 0.117,-3.426 3.007,-3.426 l 2.438,0 -5.328,-17.277 -0.61,-1.949 c -5.992,-1.043 -12.547,-3.024 -17.574,-6.563 -15.301,29.649 -11,59.657 1.856,69.633 -0.223,-6.308 5.257,-14.844 7.867,-16.644 -1.707,6.511 1.234,18.129 -2.145,21.035 -2.363,2 -5.945,3.008 -9.777,2.898 2.586,4.266 6.195,9.696 12.23,17.656 9.012,4.254 11.606,14.727 13.848,20.008 -9.801,-3.593 -16.977,-8.652 -18.562,-16.863 -3.461,-4.609 -7.301,-10.004 -11.575,-16.395 0.242,7.754 -4.05,10.45 -9.675,10.879 -16.497,-3.48 -15.266,-15.375 -29.426,-23.589 9.672,-3.387 24.816,17.855 30.004,15.484 0.797,-13.008 -2.145,-23.254 -2.145,-30.332 -2.473,2.711 -3.742,4.59 -5.848,4.945 -2,0.352 -7.531,-0.113 -11.339,-4.273 -1.055,-6.586 -0.786,-19.004 -6.961,-33.813 9.218,8.43 13.582,24.942 15.058,29.75 2.344,-3.23 4.91,-10.371 5.496,-16.492 1.11,-11.855 8.391,-31.578 14.59,-41.094 -1.707,-3.312 -2.226,-7.019 -1.613,-11.105 -4.809,-3.582 -5.359,-8.586 -3.691,-11.942 1.785,-3.586 6.519,-6.058 12.074,-3.828 l 1.758,0.707 c 5.839,2.414 16.738,6.946 29.941,6.946 13.203,0 24.113,-4.532 29.969,-6.946 l 1.75,-0.707 c 5.554,-2.23 10.265,0.242 12.054,3.828 1.692,3.356 1.137,8.36 -3.687,11.942 0.644,4.39 -0.047,8.394 -2.055,11.902 l 0.164,-0.183 c 11.305,16.05 12.039,46.769 21.383,55.523 0.785,-10.762 6.52,-19.672 12.149,-20.898 -4.532,7.406 -4.532,22.144 -4.188,28.902 l 0,0"
             id="path68"
             style="fill:#231f20;fill-opacity:1;fill-rule:nonzero;stroke:none" /><path
             d="m 177.988,187.871 c -4.234,-0.039 -6.902,-0.07 -6.953,-0.098 -1.047,-12.07 -0.547,-23.078 1.113,-33.097 4.301,7.09 8.614,14.203 8.411,19.23 -0.207,5.117 -1.399,9.785 -2.571,13.965"
             id="path70"
             style="fill:#231f20;fill-opacity:1;fill-rule:nonzero;stroke:none" /><path
             d="m 202.695,166.973 c 2.41,-6.653 5.328,-17.176 7.731,-24.582 -2.082,-0.125 -4.11,-0.282 -5.957,-0.567 -1.039,2.649 -4.508,11.379 -8.067,19.817 -3.343,7.91 4.61,9.949 6.293,5.332 z m 14.614,7.089 c 0.55,3.907 11.621,4.649 9.543,-3.933 -2.086,-8.734 -4.719,-18.852 -6.719,-27.578 -0.949,0 -1.887,0.008 -2.824,0.008 -0.954,0 -1.903,-0.008 -2.829,-0.008 -2.023,8.726 -4.636,18.844 -6.726,27.578 -2.066,8.582 8.976,7.84 9.555,3.933 z m 20.898,-12.421 c -3.578,-8.438 -7.019,-17.168 -8.07,-19.817 -1.852,0.285 -3.891,0.442 -5.949,0.567 2.406,7.406 5.289,17.929 7.73,24.582 1.695,4.617 9.609,2.578 6.289,-5.332 z M 202.758,136.98 c 2.387,0.872 11.754,1.313 14.551,1.313 2.789,0 12.121,-0.441 14.523,-1.313 0.254,-1.257 0.281,-3.007 0.086,-4.296 -3.606,-1.043 -9.91,-1.582 -14.609,-1.582 -4.727,0 -11.02,0.539 -14.614,1.582 -0.215,1.289 -0.207,3.039 0.063,4.296 z m 26.109,-27.449 c -3.148,-0.691 -8.191,-1.023 -11.558,-1.023 -3.368,0 -8.426,0.332 -11.586,1.023 0.336,1.336 0.797,3.231 1.234,5.157 -2.371,0.214 -4.812,1.132 -6.738,1.804 0.988,3.391 2.515,6.801 3.785,11.469 4.285,-0.949 8.453,-1.328 13.305,-1.328 4.824,0 8.992,0.379 13.261,1.328 1.278,-4.668 2.813,-8.078 3.825,-11.469 -1.922,-0.672 -4.391,-1.59 -6.75,-1.804 0.445,-1.926 0.886,-3.821 1.222,-5.157 z m -47.836,78.367 c 1.16,-4.16 2.281,-8.757 2.485,-13.867 0.23,-5.926 -4.176,-13.203 -8.836,-20.918 -0.543,-0.879 -1.043,-1.758 -1.582,-2.644 C 186.492,84.4922 250.309,62.5 250.309,62.5 l 0,125.273 c 0,0 -48.036,0.176 -69.278,0.125"
             id="path72"
             style="fill:#231f20;fill-opacity:1;fill-rule:nonzero;stroke:none" /><path
             d="m 320.344,175.527 -0.211,3.133 3.133,0.031 c 4.211,0.02 6.359,4.071 7.433,8.797 -16.351,0.129 -75.015,-0.097 -75.015,-0.097 l 0,-60.496 c 4.89,3.613 9.57,6.613 15.746,8.566 l 0,13.25 6.097,0 c 0.348,14.637 3.84,25.195 10.633,32.187 l 1.961,2.051 1.996,-2.051 c 6.805,-6.992 10.293,-17.55 10.633,-32.187 l 6.344,0 0,-14.141 c 6.695,-2.773 11.203,-7.011 14.656,-11.535 5.547,11.25 9.586,24.336 11.086,39.414 -0.285,-0.027 -0.59,-0.078 -0.898,-0.078 -6.333,0 -13.02,4.504 -13.594,13.156"
             id="path74"
             style="fill:#231f20;fill-opacity:1;fill-rule:nonzero;stroke:none" /><path
             d="m 334.965,187.391 c -0.004,0.031 -0.492,0.05 -1.242,0.07 -1.465,-6.926 -4.629,-11.707 -10.422,-11.746 0.453,-6.887 5.652,-10.403 10.637,-10.403 0.394,0 0.769,0.126 1.164,0.176 0.503,6.883 0.558,14.149 -0.137,21.903"
             id="path76"
             style="fill:#231f20;fill-opacity:1;fill-rule:nonzero;stroke:none" /><path
             d="m 304.664,109.043 -5.324,6.102 -9.063,-8.086 3.727,-4.258 c 0,0 3.801,1.797 7.18,-2.11 -2.536,-2.234 -6.95,-6.0816 -9.512,-8.2691 -3.371,3.8867 -1.063,7.3906 -1.063,7.3906 l -3.656,4.2495 -11.094,-9.9136 -3.597,4.1602 11.375,9.5434 -4.09,4.687 c 0,0 -1.504,-1.32 -3.719,-3.262 -3.23,3.77 -5.762,8.719 -3.422,14.934 6.461,1.473 11.016,-1.742 14.266,-5.461 -2.18,-1.953 -3.707,-3.262 -3.707,-3.262 l 4.113,-4.746 9.313,7.793 -5.317,6.121 c 4.84,0.586 8.981,-1.14 11.391,-3.855 2.32,-2.676 3.441,-7.063 2.199,-11.758 z m -14.543,23.359 c -17.801,0 -24.672,-4.922 -34.437,-12.422 l 0,-57.8316 c 0,0 42.207,14.5 65.234,55.2926 -5.328,7.957 -13.059,14.961 -30.797,14.961"
             id="path78"
             style="fill:#231f20;fill-opacity:1;fill-rule:nonzero;stroke:none" /><path
             d="m 185.605,237.004 c 8.883,5.031 13.481,8.762 18.2,16.156 -3.473,1.692 -7.633,4.836 -10.703,9.141 16.886,-4.75 25.429,-7.219 45.316,-0.156 -3.262,-5.125 -8.074,-8.2 -12.125,-10.782 4.508,-7.414 8.98,-15.937 10.566,-22.715 -5.953,0.473 -12.695,-0.976 -17.535,-5.39 -7.445,-0.348 -16.847,-2.692 -22.043,14.183 -2.676,-1.363 -5.383,-3.156 -5.383,-3.156 3.051,-11.027 8.637,-18.527 23.497,-16.949 0.804,-3.504 1.441,-5.535 3.25,-8.481 -6.063,-3.562 -21.364,-12.578 -33.04,-2.207 0,10.778 0,30.356 0,30.356 z m 55.856,-24.871 c -1.566,-2.235 -11.117,-5.168 -13.481,-3.688 -3.98,2.43 -5.972,7.645 -5.046,9.879 1.136,2.914 11.679,5.832 15.035,4.746 3.379,-1.136 4.84,-9.011 3.492,-10.937 z m 28.441,12.703 0,3.152 -7.414,0.121 c 1.774,7.871 17.082,17.856 23.961,20.196 -0.371,8.535 10.871,11.367 19.883,11.617 11.207,0.289 13.805,-11.707 13.805,-15.445 0,-4.95 -1.274,-15.891 -7.477,-19.297 -8.988,-4.918 -16.664,1.875 -16.664,8.066 0,6.754 4.688,10.703 12.789,9.797 8.102,-0.875 7.481,3.645 1.36,5.195 -2.993,0.735 -15.844,1.399 -20.122,-8.148 -2.441,-0.106 -5.097,0.906 -6.64,2.41 -1.668,-2.16 -4.262,-3.594 -7.84,-4.625 3.09,-6.363 9.457,-5.273 13.324,-2.246 -0.113,-0.856 -0.179,-1.719 -0.179,-2.695 0,-15.598 16.64,-19.539 26.863,-13.696 -1.696,-5.058 -0.903,-11.457 -0.203,-15.773 0,0 -34.879,0 -40.27,0 0.688,4.316 6.051,9.234 10.543,12.39 l -3.57,5.637 c -4.395,-1.922 -8.489,-3.672 -13.211,-4.914 -11.16,-2.902 -10.504,5.043 1.062,8.258 z m -96.445,-5.926 c 4.496,-3.672 6.168,-6.402 4.766,-18.816 -0.192,-1.559 0.629,-4.473 1.55,-7.625 l 151.711,0 c 0.164,1.652 0.246,3.277 0.27,4.679 0.125,6.805 -1.145,12.211 -3.316,14.45 -0.719,0.742 -1.512,1.086 -2.954,1.086 -0.058,0 -0.136,0 -0.191,0 l -6.059,-0.676 3.223,5.183 c 3.168,5.09 7.695,8.024 12.508,8.371 l 0,45.032 -163.625,0 0,-50.266 c 0.562,-0.348 1.144,-0.633 1.652,-1.043 l 0.465,-0.375"
             id="path80"
             style="fill:#231f20;fill-opacity:1;fill-rule:nonzero;stroke:none" /><path
             d="m 171.34,216.797 0,-24.328 5.383,0 c -0.938,3.195 -1.672,6.015 -1.446,7.969 1.403,12.312 -0.472,13.542 -3.937,16.359"
             id="path82"
             style="fill:#231f20;fill-opacity:1;fill-rule:nonzero;stroke:none" /><path
             d="m 334.965,192.469 0,30.176 c -3.496,-0.333 -7.184,-2.524 -9.981,-7.016 0.293,0.035 0.582,0.051 0.875,0.051 6.739,0 9.024,-9.157 8.864,-18.582 -0.016,-1.606 -0.11,-3.133 -0.235,-4.629 l 0.477,0"
             id="path84"
             style="fill:#231f20;fill-opacity:1;fill-rule:nonzero;stroke:none" /><path
             d="m 211.133,233.832 c 2.808,-1.336 6.273,0.234 9.887,-0.238 -0.708,1.57 -1.481,2.707 -1.04,4.965 0.895,4.394 -2.574,5.507 -4.238,5.39 -4.105,-0.254 -6.422,-1.137 -10.715,0 2.946,-2.91 2.192,-8.234 6.106,-10.117"
             id="path86"
             style="fill:#231f20;fill-opacity:1;fill-rule:nonzero;stroke:none" /><path
             d="m 175.523,200.691 c 1.426,12.575 -0.562,13.586 -4.179,16.551 -3.141,2.567 -8.34,3.383 -13.496,6.961 -3.703,2.555 -4.739,6.27 -9.43,11.223 0.93,10.605 8.5,23.539 14.086,26.472 0.824,0.426 0.555,16.84 0.555,16.84 0,0 3.699,0.153 3.347,0.383 -5.004,3.043 -11.023,0.746 -15.394,-4.379 -4.25,-3.39 -13.918,-9.898 -20.559,-12.168 -9.062,7.621 -23.141,14.328 -33.4061,24.672 0,0 13.6211,0.117 19.9101,2.692 1.676,1.019 6.035,7.972 4.254,14.617 -2.117,0.757 -5.16,2.355 -8.152,4.023 -3.739,2.129 -7.336,4.414 -9.016,5.684 -5.9453,4.488 -8.3203,8.39 -18.5703,10.972 0.6718,4.707 1.6718,3.61 6.2031,6.645 5.7304,3.891 8.9262,8.527 11.2382,13.125 1.781,3.609 -0.234,11.016 -4.8671,1.617 -1.5899,-3.324 -6.0742,-7.777 -11.1172,-9.117 0.3945,2.902 0.5586,4.574 0.5586,6.184 14.9527,10.566 13.5037,19.886 12.3555,28.64 -0.6407,5.074 -5.7032,7.207 -5.4805,1.899 0.1445,-3.465 3.25,-13.368 -6.9961,-19.192 -0.2227,4.379 -1.4258,6.406 -2.3516,8.637 9.125,12.008 5.3008,23.617 1.4649,28.894 -2.4414,3.375 -8.461,4.559 -5.7422,-0.8 2.2578,-4.36 5.8398,-16.25 -0.8867,-21.133 -2.3516,2.926 -5.0469,4.07 -5.961,7.988 0.668,13.051 -0.1523,21.031 -1.8047,25.652 -1.5781,4.356 -5.7187,7.055 -5.3593,0.649 0.3476,-7.246 0.9804,-16.391 0.3125,-16.953 -0.6719,-0.563 -10.336,8.414 -14.2657,11.109 -3.9922,2.742 -8.6796,1.707 -4.0586,-3.687 4.0664,-4.75 16.4258,-13.84 14.8282,-16.77 -0.9727,-1.84 -9.8242,5.43 -14.3789,6.992 -4.6172,1.575 -6.0586,-0.851 -2.1485,-4.062 6.2852,-5.164 10.4844,-8.539 20.793,-12.035 10.3516,-3.465 15.5234,-17.797 12.2617,-38.2 -0.1289,-0.945 -1.9101,-0.808 -2.9258,-0.461 -0.4804,7.766 -1.8281,17.153 -3.7031,21.239 -2.4609,5.406 -7.2969,5.519 -5.5078,-1.797 1.4258,-5.789 2.2383,-12.02 1.2266,-19.789 -8.5391,1.457 -11.793,3.719 -15.3711,5.844 -0.3711,3.98 1.6718,10.441 2.0273,16.308 0.3047,5.727 -3.043,9.344 -4.957,2.145 -1.836,-6.914 -3.0313,-10.239 -4.1758,-15.196 -2.4609,0.797 -5.043,1.938 -6.2383,3.262 -0.5781,0.66 -0.0391,8.441 -0.625,14.07 -0.6211,6.36 -3.043,6.168 -4.9219,0.559 -0.8945,-2.578 -1.5781,-5.973 -1.8125,-10.141 -3.0156,1.821 -5.0351,5.301 -5.3906,8.11 0.4414,6.64 1.582,13.691 2.375,18.09 0.5664,3.16 -1.5781,9.57 -4.0703,1.812 -1.7734,-5.57 -2.2461,-10.23 -3.3633,-14.16 -2.1719,0.141 -5.0234,12.816 -6.5078,20.894 -0.6601,3.692 -3.7266,7.872 -4.2891,-0.304 -0.6093,-9.039 1.254,-18.129 3.504,-22.168 -4.3907,0.449 -8.56646,8.332 -11.60942,12.926 -2.67969,4.113 -3.964849,-0.176 -3.6992238,-1.797 C 2.64062,354.688 15.4688,348.961 21.2969,347.832 30.2891,334.91 47.4688,329.391 61.9766,323.09 c -18.875,0.23 -23.8125,-7.402 -32.4805,-2.43 0.3906,-7.129 3.9101,-10.426 7.332,-12.082 2.4414,-1.133 4.8125,-1.465 5.9258,-1.668 1.5586,-8.644 9.7891,-8.195 16.7578,-8.644 -1.7969,-16.871 0.2344,-39.133 15.0469,-55.75 -0.4336,-8.543 -1.0234,-19.762 -0.8906,-27.2 -12.1485,-11.25 -22.9414,-34.855 -27.2032,-47.886 -3.1914,-9.754 -7.996,-17.325 -15.4062,-20.918 6.0859,-6.395 15.0625,-3.242 20.2383,0.351 0.3476,-5.73 1.6914,-9.785 2.582,-13.172 -3.4687,-5.136 -5.8242,-8.73 -5.5195,-15.05 -3.9219,-1.102 -6.6172,-3.496 -8.7461,-6.18 -1.336,-1.668 0.207,-9.434 1.707,-12.6876 4.8281,-10.8398 1.0625,-35.2617 0.2031,-42.5 2.043,-0.1054 5.7422,-0.2304 6.5313,2.8164 1.1836,-1.125 4.1367,-3.2851 5.5039,-7.9609 -0.3438,-2.0312 -1.4766,-9.5312 2.3672,-10.4687 3.1367,-0.7813 16.7383,-0.3438 18.539,1.9921 -1.3632,1.5899 -3.7343,5.1954 -5.1679,8.7891 0,3.6914 -0.3399,8.1914 -1.3633,10.0977 -1.5664,2.7343 -5.5039,9.0039 -7.9922,11.4921 -0.5312,4.504 -0.9961,24.3946 1.1133,32.0548 3.5039,2.422 27.4414,20.191 32.4062,37.184 4.3829,-1.485 3.043,-13.329 3.043,-28.711 0,-4.129 5.0191,-6.211 8.0041,-6.59 6.461,-0.781 15.703,-6.961 26.023,-22.2659 2.028,2.168 4.614,4.1797 4.614,4.1797 1.347,-1.7969 2.917,-6.1914 3.824,-9.0156 1.121,-2.1094 9.449,-3.3594 15.855,-1.4336 2.117,0.7422 3.356,1.0937 4.731,3.3594 -8.106,14.1328 -12.985,23.523 -23.383,31.355 -4.84,3.625 -11.25,5.422 -16.656,8.868 3.609,6.769 13.511,38.437 7.523,50.039 -2.004,3.808 -9.539,7.629 -18.711,5.957 7.668,9.203 23.242,27.433 25.277,33.027 1.786,-2.141 10.985,-0.66 17.805,-3.324 2.504,-1.012 9.488,-10.055 9.813,-13.16 0.613,-5.606 0.91,-12.254 -2.993,-27.578 2.731,0.441 2.313,0.57 5.016,1.671 0.465,-4.093 -0.781,-7.277 -4.375,-13.457 0.891,-5.515 3.363,-14.054 5.973,-15.636 3.461,10.324 16.293,25 15.945,33.566 -0.461,11.633 -5.879,21.5 -5.266,26.57 l 0,0"
             id="path88"
             style="fill:#231f20;fill-opacity:1;fill-rule:nonzero;stroke:none" /><path
             d="m 670.375,267.074 c -2.441,7.774 -10.656,19.547 -27.09,19.547 -10.437,0 -19.547,-5.332 -23.988,-13.551 -5.328,-9.988 -7.77,-23.543 -7.77,-42.187 0,-26.66 4.434,-43.317 13.766,-49.985 4.883,-3.546 11.109,-5.324 18.437,-5.324 21.54,0 30.649,16.438 30.649,55.754 0,15.758 -1.332,27.086 -4.004,35.746 z m 47.754,-139.027 c 0,0 -4.441,-2.656 -13.774,-2.656 -11.992,0 -22.652,7.097 -28.425,10.886 -7.325,4.883 -19.321,11.75 -31.313,15.539 -23.097,0 -38.199,6.426 -49.972,21.758 -11.762,15.106 -17.758,34.653 -17.758,57.309 0,33.305 12.648,60.179 34.859,72.172 9.109,4.883 20.434,7.55 31.984,7.55 41.09,0 66.403,-29.98 66.403,-78.398 0,-33.531 -11.992,-58.633 -30.43,-70.852 4.223,-1.543 10.219,-5.546 13.774,-7.781 5.554,-3.312 12.211,-6.426 19.097,-6.426 6.668,0 13.774,1.106 13.774,1.106 l -8.219,-20.207"
             id="path90"
             style="fill:#231f20;fill-opacity:1;fill-rule:nonzero;stroke:none" /><path
             d="m 810.93,151.152 c -3.778,2.657 -6.883,6.426 -8.879,11.094 -7.328,-7.09 -17.989,-10.879 -29.981,-10.879 -15.996,0 -29.765,7.551 -33.539,18.438 -1.773,5.105 -2.445,11.093 -2.445,22.644 l 0,72.852 29.32,5.547 0,-73.055 c 0,-10.227 0.887,-15.559 2.442,-18.652 1.55,-3.125 5.996,-5.34 10.437,-5.34 7.328,0 16.219,5.34 18.43,10.887 l 0,79.941 28.426,5.996 0,-86.824 c 0,-7.563 2.441,-15.336 6.886,-20.656 L 810.93,151.152"
             id="path92"
             style="fill:#231f20;fill-opacity:1;fill-rule:nonzero;stroke:none" /><path
             d="m 919.281,224.883 c 0,8.426 -0.89,12.871 -3.554,17.094 -2.883,4.445 -7.11,6.664 -13.106,6.664 -11.316,0 -17.762,-8.883 -17.762,-24.657 l 0,-0.445 34.422,0 0,1.344 z m -34.867,-23.102 0,-0.898 c 0,-17.524 8.66,-27.535 23.984,-27.535 10.219,0 19.77,3.769 28.868,11.34 l 11.55,-17.786 c -13.097,-10.644 -26.875,-15.75 -42.859,-15.75 -32.652,0 -53.75,23.094 -53.75,58.836 0,20.442 4.223,33.992 14.215,45.094 9.324,10.441 20.656,15.324 35.762,15.324 13.097,0 25.535,-4.445 32.859,-11.992 10.441,-10.66 15.109,-25.984 15.109,-49.746 l 0,-6.887 -65.738,0"
             id="path94"
             style="fill:#231f20;fill-opacity:1;fill-rule:nonzero;stroke:none" /><path
             d="m 1034.31,224.883 c 0,8.426 -0.89,12.871 -3.56,17.094 -2.88,4.445 -7.11,6.664 -13.1,6.664 -11.33,0 -17.767,-8.883 -17.767,-24.657 l 0,-0.445 34.427,0 0,1.344 z m -34.869,-23.102 0,-0.898 c 0,-17.524 8.659,-27.535 23.989,-27.535 10.21,0 19.76,3.769 28.86,11.34 l 11.56,-17.786 c -13.11,-10.644 -26.88,-15.75 -42.86,-15.75 -32.662,0 -53.748,23.094 -53.748,58.836 0,20.442 4.211,33.992 14.211,45.094 9.317,10.441 20.647,15.324 35.757,15.324 13.1,0 25.53,-4.445 32.86,-11.992 10.44,-10.66 15.11,-25.984 15.11,-49.746 l 0,-6.887 -65.739,0"
             id="path96"
             style="fill:#231f20;fill-opacity:1;fill-rule:nonzero;stroke:none" /><path
             d="m 1149.33,154.258 0,73.949 c 0,12.883 -2.23,16.656 -9.99,16.656 -6,0 -13.78,-3.996 -20.67,-10.211 l 0,-80.394 -29.75,0 0,82.398 c 0,9.766 -1.34,19.098 -4,26.645 l 26.43,7.547 c 2.66,-4.668 4.22,-9.547 4.22,-14.211 4.43,3.109 8.22,5.769 13.1,8.441 6,3.106 13.76,4.887 20.43,4.887 12.67,0 23.76,-6.664 27.32,-16.434 1.55,-4.226 2.22,-9.105 2.22,-16.219 l 0,-83.054 -29.31,0"
             id="path98"
             style="fill:#231f20;fill-opacity:1;fill-rule:nonzero;stroke:none" /><path
             d="m 1246.12,150.715 c -13.98,0 -29.3,4.441 -45.96,13.094 l 10.66,21.757 c 9.1,-5.546 24.87,-12.871 37.75,-12.871 8.44,0 15.1,5.547 15.1,12.871 0,7.782 -5.54,11.774 -17.55,13.993 l -13.32,2.445 c -7.55,1.336 -16.87,6.664 -20.87,11.547 -4,4.887 -6.44,13.109 -6.44,20.422 0,22.218 17.54,37.101 43.96,37.101 18.23,0 30.22,-5.551 40.66,-10.66 l -9.79,-19.988 c -11.32,5.773 -19.53,8.215 -27.98,8.215 -8.66,0 -14.43,-4.442 -14.43,-11.106 0,-5.769 3.78,-8.887 14.22,-11.535 l 13.76,-3.559 c 13.99,-3.562 18.66,-7.789 22.65,-12.89 4.22,-5.328 6.23,-11.758 6.23,-19.317 0,-23.546 -19.55,-39.519 -48.65,-39.519"
             id="path100"
             style="fill:#231f20;fill-opacity:1;fill-rule:nonzero;stroke:none" /><path
             d="m 1347.57,151.59 c -12.67,0 -22.88,5.988 -26.44,15.539 -2.22,5.781 -2.66,9.324 -2.66,25.547 l 0,84.84 c 0,14.882 -0.44,23.984 -1.56,34.199 l 30.42,6.887 c 1.12,-6.215 1.57,-13.551 1.57,-29.54 l 0,-88.624 c 0,-19.54 0.22,-22.196 2,-25.301 1.1,-2.004 3.54,-3.125 5.99,-3.125 1.12,0 1.78,0 3.32,0.437 l 5.12,-17.754 c -5.12,-2 -11.33,-3.105 -17.76,-3.105"
             id="path102"
             style="fill:#231f20;fill-opacity:1;fill-rule:nonzero;stroke:none" /><path
             d="m 1434.14,204.004 c -20.66,0 -27.76,-3.785 -27.76,-17.332 0,-8.879 5.55,-14.875 13.09,-14.875 5.56,0 11.12,2.898 15.56,7.781 l 0.44,24.426 -1.33,0 z m 25.31,-55.539 c -6.88,2.902 -13.1,8.008 -15.98,13.781 -2.22,-2.207 -4.66,-4.445 -6.89,-5.988 -5.55,-4 -13.55,-6.231 -22.87,-6.231 -25.32,0 -39.09,12.883 -39.09,35.539 0,26.661 18.43,39.079 54.64,39.079 2.21,0 4.21,0 6.65,-0.219 l 0,4.66 c 0,12.672 -2.44,16.887 -13.32,16.887 -9.55,0 -20.66,-4.657 -32.87,-12.883 l -12.66,21.328 c 6,3.773 10.44,5.996 18.44,9.32 11.1,4.664 20.65,6.668 31.08,6.668 19.11,0 32.21,-7.105 36.65,-19.765 1.56,-4.668 2.23,-8.219 2,-20.43 l -0.67,-38.199 c -0.22,-12.434 0.67,-17.766 10.66,-25.324 l -15.77,-18.223"
             id="path104"
             style="fill:#231f20;fill-opacity:1;fill-rule:nonzero;stroke:none" /><path
             d="m 1559.16,154.258 0,73.949 c 0,12.883 -2.25,16.656 -10,16.656 -6,0 -13.77,-3.996 -20.67,-10.211 l 0,-80.394 -29.75,0 0,82.398 c 0,9.766 -1.33,19.098 -4,26.645 l 26.44,7.547 c 2.65,-4.668 4.22,-9.547 4.22,-14.211 4.43,3.109 8.21,5.769 13.1,8.441 6,3.106 13.76,4.887 20.44,4.887 12.65,0 23.76,-6.664 27.3,-16.434 1.56,-4.226 2.23,-9.105 2.23,-16.219 l 0,-83.054 -29.31,0"
             id="path106"
             style="fill:#231f20;fill-opacity:1;fill-rule:nonzero;stroke:none" /><path
             d="m 1683.95,237.984 c -5.55,4.887 -10.89,7.328 -16.23,7.328 -13.33,0 -19.09,-11.101 -19.09,-36.425 0,-24.422 5.1,-32.434 20.66,-32.434 5.56,0 11.76,3.789 14.66,7.348 l 0,54.183 z m 6.66,-83.726 c -0.88,1.777 -1.32,3.543 -1.78,6.66 -7.33,-6.445 -16,-9.551 -26.21,-9.551 -28.87,0 -47.08,22.434 -47.08,57.738 0,35.54 19.75,59.973 48.64,59.973 8.21,0 14.66,-2.004 20.22,-6.441 -0.45,2.441 -0.89,10.211 -0.89,16.879 l 0,39.086 29.54,-4.668 0,-118.157 c 0,-27.984 2.2,-37.078 4.21,-41.519 l -26.65,0"
             id="path108"
             style="fill:#231f20;fill-opacity:1;fill-rule:nonzero;stroke:none" /><path
             d="m 1852.92,151.816 c -19.1,0 -35.32,6.661 -46.87,19.09 -12.89,13.996 -18.87,32.879 -18.87,59.078 0,29.094 7.78,49.75 23.53,63.965 10.88,9.77 23.99,14.434 39.76,14.434 16.22,0 30.21,-5.106 41.75,-15.102 L 1884,281.957 c -12.43,8.438 -21.31,11.773 -33.08,11.773 -17.77,0 -31.76,-8.218 -37.98,-25.765 -3.98,-11.328 -6.01,-24.207 -6.01,-38.653 0,-19.988 3.78,-36.183 10.67,-46.187 6.89,-9.992 22.43,-16.223 36.86,-16.223 9.54,0 17.78,2.004 24.22,6.008 l 0,46.41 -30.65,0 -3.56,15.11 51.31,0 0,-71.071 c -10.88,-7.101 -27.32,-11.543 -42.86,-11.543"
             id="path110"
             style="fill:#231f20;fill-opacity:1;fill-rule:nonzero;stroke:none" /><path
             d="m 1990.58,239.758 c -4.67,9.769 -14.44,14.211 -23.55,14.211 -9.76,0 -18.88,-4.664 -22.64,-11.992 -3.55,-6.883 -5.34,-15.758 -5.34,-28.868 0,-15.535 2.68,-29.308 6.9,-36.214 3.99,-6.653 12.88,-11.094 22.42,-11.094 11.55,0 20.22,5.996 23.98,16.66 2.45,6.883 3.33,13.094 3.33,23.984 0,15.551 -1.54,25.985 -5.1,33.313 z m -22.65,-88.391 c -30.43,0 -47.76,22.434 -47.76,58.844 0,35.988 17.99,57.973 47.09,57.973 18.43,0 30.44,-8.438 37.97,-19.317 6.9,-10 10.23,-23.105 10.23,-41.086 0,-36.875 -19.78,-56.414 -47.53,-56.414"
             id="path112"
             style="fill:#231f20;fill-opacity:1;fill-rule:nonzero;stroke:none" /><path
             d="m 2078.95,153.133 -17.11,0 -39.75,110.836 17.77,3.773 25.76,-76.172 c 3.12,-9.109 5.32,-18.875 5.32,-18.875 l 0.46,0 c 0,0 1.78,8.645 5.33,18.645 l 25.32,73.512 18.44,0 -41.54,-111.719"
             id="path114"
             style="fill:#231f20;fill-opacity:1;fill-rule:nonzero;stroke:none" /><path
             d="m 2194.83,244.426 c -3.79,5.996 -11.57,9.762 -20,9.762 -15.77,0 -24.65,-11.543 -25.54,-34.426 l 50.65,0 c -0.22,12.004 -1.8,19.336 -5.11,24.664 z m -45.54,-37.762 0,-2.66 c 0,-10.434 1.33,-18.438 5.1,-24.207 6.24,-9.555 16.44,-13.547 27.55,-13.547 10.66,0 19.32,3.34 27.1,10.43 l 6.65,-11.094 c -9.76,-8.887 -23.09,-13.77 -37.31,-13.77 -30.64,0 -49.07,22.215 -49.07,58.852 0,18.644 4,30.648 13.32,41.75 8.88,10.437 19.77,15.324 33.08,15.324 12,0 22.43,-4.222 29.99,-11.988 9.55,-9.781 12.66,-20.211 12.66,-46.649 l 0,-2.441 -69.07,0"
             id="path116"
             style="fill:#231f20;fill-opacity:1;fill-rule:nonzero;stroke:none" /><path
             d="m 2290.97,248.191 c -1.12,0.45 -3.1,0.895 -4.89,0.895 -6.66,0 -13.33,-2.887 -18.43,-7.996 -5.11,-5.11 -6.45,-8.438 -6.45,-17.551 l 0,-69.281 -17.31,0 0,85.277 c 0,16.219 -3.77,23.547 -3.77,23.547 l 17.3,4.66 c 0,0 4.22,-8.664 3.57,-17.984 7.99,11.32 19.75,18.426 31.1,18.426 2.87,0 5.99,-1.11 5.99,-1.11 l -7.11,-18.883"
             id="path118"
             style="fill:#231f20;fill-opacity:1;fill-rule:nonzero;stroke:none" /><path
             d="m 2371.8,154.258 0,74.828 c 0,11.781 -0.89,14.672 -4.01,18.449 -2.44,2.887 -7.11,4.66 -12.21,4.66 -8.89,0 -22.65,-7.101 -30.65,-15.539 l 0,-82.398 -16.87,0 0,85.277 c 0,15.766 -4.23,23.32 -4.23,23.32 l 16.87,4.668 c 0,0 4.01,-8.218 4.01,-17.328 11.55,11.551 23.1,17.102 34.85,17.102 12.01,0 22.67,-6.438 27.11,-16.207 1.78,-4.004 2.67,-8.445 2.67,-12.887 l 0,-83.945 -17.54,0"
             id="path120"
             style="fill:#231f20;fill-opacity:1;fill-rule:nonzero;stroke:none" /><path
             d="m 2544.1,154.258 0,81.722 c 0,10.665 -4.88,16.215 -14.21,16.215 -9.99,0 -17.76,-6.441 -29.3,-17.101 l 0,-80.836 -17.54,0 0,78.613 c 0,6.664 -0.69,11.109 -3.13,14.215 -2.65,3.109 -6.21,4.441 -11.31,4.441 -8.44,0 -16.68,-4.215 -28.21,-14.652 l 0,-82.617 -16.67,0 0,85.719 c 0,15.996 -3.98,23.543 -3.98,23.543 l 16.87,4.003 c 0,0 4.01,-8.668 4.01,-16.433 7.31,8.215 20.85,16.652 32.18,16.652 10.9,0 21.77,-6.664 25.77,-18.437 10.66,11.328 24.2,18.437 35.53,18.437 16.44,0 27.77,-12.441 27.77,-29.988 l 0,-83.496 -17.78,0"
             id="path122"
             style="fill:#231f20;fill-opacity:1;fill-rule:nonzero;stroke:none" /><path
             d="m 2655.12,244.426 c -3.78,5.996 -11.55,9.762 -19.98,9.762 -15.79,0 -24.66,-11.543 -25.56,-34.426 l 50.64,0 c -0.21,12.004 -1.77,19.336 -5.1,24.664 z m -45.54,-37.762 0,-2.66 c 0,-10.434 1.34,-18.438 5.11,-24.207 6.24,-9.555 16.44,-13.547 27.54,-13.547 10.67,0 19.32,3.34 27.11,10.43 l 6.65,-11.094 c -9.78,-8.887 -23.09,-13.77 -37.31,-13.77 -30.64,0 -49.08,22.215 -49.08,58.852 0,18.644 4,30.648 13.33,41.75 8.89,10.437 19.77,15.324 33.1,15.324 11.99,0 22.42,-4.222 29.97,-11.988 9.55,-9.781 12.66,-20.211 12.66,-46.649 l 0,-2.441 -69.08,0"
             id="path124"
             style="fill:#231f20;fill-opacity:1;fill-rule:nonzero;stroke:none" /><path
             d="m 2767.92,154.258 0,74.828 c 0,11.781 -0.89,14.672 -4,18.449 -2.44,2.887 -7.09,4.66 -12.2,4.66 -8.89,0 -22.67,-7.101 -30.67,-15.539 l 0,-82.398 -16.86,0 0,85.277 c 0,15.766 -4.22,23.32 -4.22,23.32 l 16.88,4.668 c 0,0 3.98,-8.218 3.98,-17.328 11.57,11.551 23.11,17.102 34.87,17.102 12,0 22.66,-6.438 27.09,-16.207 1.8,-4.004 2.68,-8.445 2.68,-12.887 l 0,-83.945 -17.55,0"
             id="path126"
             style="fill:#231f20;fill-opacity:1;fill-rule:nonzero;stroke:none" /><path
             d="m 2860.07,251.746 -23.1,0 0,-71.285 c 0,-12.207 3.32,-16.438 14.21,-16.438 4.88,0 7.77,0.672 10.87,2.227 l 2.46,-11.094 c -5.56,-2.898 -11.79,-4.441 -19.55,-4.441 -5.79,0 -10.23,1.101 -14.43,3.094 -7.78,3.769 -10.68,10.886 -10.68,21.98 l 0,75.957 -14.43,0 0,13.106 14.43,0 c 0,10.66 1.78,27.984 1.78,27.984 l 18.22,3.996 c 0,0 -2.22,-17.316 -2.22,-31.98 l 27.76,0 -5.32,-13.106"
             id="path128"
             style="fill:#231f20;fill-opacity:1;fill-rule:nonzero;stroke:none" /></g></g></g></g></svg>