<?xml version="1.0" encoding="UTF-8" standalone="no"?>
<!-- Created with Inkscape (http://www.inkscape.org/) -->

<svg
   xmlns:dc="http://purl.org/dc/elements/1.1/"
   xmlns:cc="http://creativecommons.org/ns#"
   xmlns:rdf="http://www.w3.org/1999/02/22-rdf-syntax-ns#"
   xmlns:svg="http://www.w3.org/2000/svg"
   xmlns="http://www.w3.org/2000/svg"
   version="1.1"
   width="100%"
   height="100%"
   viewBox="0 0 189.76367 61.963001"
   id="svg2"
   xml:space="preserve"><metadata
     id="metadata8"><rdf:RDF><cc:Work
         rdf:about=""><dc:format>image/svg+xml</dc:format><dc:type
           rdf:resource="http://purl.org/dc/dcmitype/StillImage" /><dc:title></dc:title></cc:Work></rdf:RDF></metadata><defs
     id="defs6"><clipPath
       id="clipPath18"><path
         d="m 0,0 603,0 0,196.895 -603,0 L 0,0 z"
         id="path20" /></clipPath></defs><g
     transform="matrix(3.1470073,0,0,-3.1470073,-8.6415126e-4,61.963)"
     id="g10"><g
       transform="scale(0.1,0.1)"
       id="g12"><g
         id="g14"><g
           clip-path="url(#clipPath18)"
           id="g16"><path
             d="m 210.355,122.258 c -0.691,-0.188 -2.347,-0.684 -3.441,-0.813 2.07,2.012 3.313,4.465 3.313,6.516 -0.989,-0.305 -2.762,-0.969 -4.383,-1.328 3.222,2.722 4.968,5.887 4.211,10.086 -0.989,-0.496 -2.367,-1.297 -3.754,-1.875 2.804,4.316 2.765,8.125 1.609,10.363 -1.254,-1.184 -2.769,-2.551 -4.379,-3.535 1.031,5 0.977,8.211 -1.109,10.449 -2.145,-4.023 -3.969,-7.023 -6.977,-10.586 0.235,3.301 -0.117,7.41 -2.269,9.559 0,0 -0.621,-4.598 -2.231,-6.074 -0.398,4.503 -1.785,6.964 -3.84,9.375 0,0 -0.128,-4.696 -1.417,-7.598 -1.083,3.926 -3.094,6.984 -5.676,9.875 0.183,-8.664 -2.231,-25 -9.192,-35.977 -0.816,-6.523 -1.527,-16.308 -12.132,-22.1091 -1.54,1.0821 -4.223,2.4611 -8,2.2341 -1,4.922 5.429,9.387 10.968,12.95 5.602,3.613 8.035,6.691 7.906,11.515 -0.128,5.281 -3.707,7.43 -7.414,7.586 -5.218,0.227 -9.453,-4.5 -10.449,-6.465 -1.511,-0.711 -5.976,-2.097 -7.808,-2.597 -2.032,-0.536 -4.325,-1.375 -5.762,-2.579 0.855,-0.535 3.301,-0.73 4.254,-0.585 1.762,0.253 7.406,1.308 12.797,1.953 1.968,-1.063 5.136,-2.84 1.777,-5.176 -4.586,-2.938 -6.547,-3.699 -13.019,-7.09 -10.239,-5.352 -6.922,-18.8359 -4.418,-19.8242 0,-4.539 4.07,-12.7617 6.828,-15.6133 1.234,-5.7226 -0.41,-14.2383 -2.145,-17.7656 -1.422,3.4766 -3.887,11.5039 -5.504,16.1914 1.668,8.8789 -1.023,12.7735 -2.887,14.2774 -1.882,1.5351 -4.82,1.125 -6.742,-1.961 2.95,0.3321 3.938,-3.457 3.875,-7.3555 -0.078,-4.6874 -1.269,-8.457 -4.543,-8.4765 0.27,-4.0235 4.582,-5.1563 6.739,-3.2227 0.332,-0.9062 2.078,-6.1718 3.714,-10.8672 0.973,-2.7734 1.922,-5.332 2.547,-6.6718 0.676,-1.4922 5.664,-1.7071 6.235,0 0.793,2.2968 1.422,4.0156 2.656,6.6718 l 0,0.0079 c 0.953,2.0312 2.262,4.6211 4.273,8.4492 1.34,-2.3047 3.125,-5.9688 4.149,-8.4571 0.484,-1.1328 0.816,-2.0625 0.851,-2.4804 0.399,-3.8203 0.176,-17.4024 -0.851,-25.5274 -11.164,3.0352 -14.328,-2.4218 -13.348,-6.4648 1.602,1.7773 3.699,1.543 5,0.6055 -0.316,-2.9805 0.492,-5.1172 3.535,-6.0157 3.207,8.4649 14.727,6.6016 15.789,5.8985 0.043,1.6289 1.602,5.7304 -4.32,6.582 0.215,7.3437 0.973,16.3164 1.25,18.1836 0.266,1.875 0.469,3.043 -0.414,5.9766 -0.266,0.8789 -0.582,1.9609 -0.918,3.2421 l 0,0 c -0.773,2.9766 -1.562,6.8438 -1.617,11.043 1.023,-1.0156 3.476,-1.8242 5.172,-1.4648 1.297,-5.5352 3.172,-3.9258 4.16,-6.25 0.504,-1.1914 0.613,-2.3242 0.758,-3.3282 0.121,-0.957 0.269,-1.8086 0.804,-2.5195 3.957,-0.1172 7.329,0.8399 9.746,2.5195 0.743,0.5352 1.387,1.1211 1.938,1.7579 -0.973,5.9062 -2.633,8.8085 -5.715,12.3828 -0.805,4.8242 -3.058,9.2383 -6.144,13.1328 3.898,1.2617 7.836,4.4336 9.918,6.6328 1.867,0.1367 4.003,1.6875 4.171,4.7344 1.082,0.1289 2.016,0.1757 2.868,0.3515 -0.098,0.8399 -0.309,2.1016 -0.442,2.8516 1.438,0 2.805,0.0586 4.145,0.1875 -0.395,1.1133 -0.903,2.2659 -1.289,3.1059 1.433,0 3.207,0.105 4.636,0.195 -0.761,1.426 -1.336,2.676 -1.781,3.933 1.645,0.168 4.203,0.579 6.281,1.067 -0.668,0.703 -1.418,1.426 -2.578,2.547 5.446,1.613 7.801,5.402 8.082,7.051 -0.804,0 -2.457,-0.372 -3.441,-0.274 3.047,1.797 5.094,4.25 5.394,6.887"
             id="path22"
             style="fill:#231f20;fill-opacity:1;fill-rule:nonzero;stroke:none" /><path
             d="m 134.246,110.039 -68.7616,0 0,-25.3984 c 0.3203,-0.1875 0.6133,-0.4297 0.9179,-0.7031 l 0,25.0195 68.4097,0 0,-23.2539 c 0.247,-0.2617 0.481,-0.5859 0.7,-1.0039 l 0,25.3398 -1.266,0"
             id="path24"
             style="fill:#231f20;fill-opacity:1;fill-rule:nonzero;stroke:none" /><path
             d="M 100.395,22.5195 C 70.0547,33.8203 66.2031,58.7109 66.0938,70 c -0.0274,0.0117 -0.0743,0.0117 -0.1016,0.0312 0.0508,0.293 0.0586,0.5274 0.1016,0.8204 0.0156,2.4375 0.1992,4.1093 0.2773,4.6875 -0.0859,1.6211 -0.3359,2.8711 -0.5938,3.8164 -0.0585,0.1836 -0.207,0.4023 -0.2929,0.5859 l 0,-11.7187 c 0,-13.1133 4.8125,-24.4336 14.2851,-33.6133 8.3125,-8.0352 17.6367,-11.7969 20.3045,-12.7539 l 0.43,-0.1563 0.426,0.1563 c 2.664,0.957 11.996,4.7187 20.3,12.7539 9.485,9.1797 14.282,20.5 14.282,33.6133 l 0,2.1406 c -0.231,-0.3828 -0.485,-0.625 -0.739,-0.9375 -0.265,-5.8789 -1.351,-15.0117 -5.265,-21.8946 -4.703,-9.6484 -11.903,-17.5781 -29.113,-25.0117"
             id="path26"
             style="fill:#231f20;fill-opacity:1;fill-rule:nonzero;stroke:none" /><path
             d="m 45.9023,178.684 c 4.3282,-2.122 5.7071,1.777 13.7891,-3.45 -5.3516,-1.687 -9.4609,-8.3 -15.4883,-6.609 4.336,2.148 3.8828,5.32 6.3867,6.883 -1.6093,0.215 -4.7304,0.937 -4.6875,3.176 l 0,0 z m 15.543,-42.989 c -2.5976,1.055 -6.5859,1.727 -8.8086,-1.398 -1.207,2.109 0.5821,5.273 1.7031,6.211 -5.6679,-0.086 -8.8867,1.633 -9.7304,3.351 2.1015,1.153 7.4062,3.075 11.7344,-0.097 2.9921,-2.188 4.5117,-3.254 8.0429,-4.414 1.2735,1.289 0.7969,0.711 1.2031,1.074 -2.9062,1.992 -4.1914,17.449 -9.8828,18.035 0.8203,1.953 3.7618,1.789 6.1289,1.152 0.168,3.469 -1.2539,9.172 -3.4023,12.461 3.3047,1.75 5.5586,-0.136 6.7148,-4.238 1.2071,-4.363 -0.2304,-15.273 2.6289,-25.098 l 1.7891,1.641 c -0.9062,5.742 5.3984,7.832 6.7734,10.695 0.5391,-3.847 -0.2617,-5.586 -1.3281,-6.972 2.2735,-0.274 3.293,-2.512 2.9375,-4.075 -5.4804,0.813 -8.6562,-4.687 -7.4375,-9.062 -4.0625,-0.887 -6.832,-0.203 -9.0664,0.734 l 0,0 z m 26.8203,-3.175 c -4.7265,-0.274 -9.375,-6.434 -7.4179,-13.446 -0.6993,-0.254 -2.7579,-0.215 -3.4297,1.199 -0.4961,-2.273 -5.1368,-4.902 -8.5157,-4.55 1.8633,2.023 3.1133,6.574 6.7696,8.976 3.6719,2.422 5.3242,4.063 6.6133,8.164 -1.7032,-0.793 -10.5391,-3.066 -13.043,-0.343 5.8164,0.839 12.6875,4.113 16.082,6.242 l -1.3515,1.426 c -3.6485,-2.063 -8.5196,-3.743 -10.9844,-4.524 -0.8789,7.277 6.0508,6.984 6.5664,5.012 2.8633,3.406 0.8594,8.269 -1.25,8.808 2.1562,5.801 0,9.375 -1.832,11.524 -0.4336,-6.172 -7.3086,-7.16 -8.1133,-11.895 -0.2735,3.758 -0.5156,13.907 -0.8125,18.856 -0.5352,9.191 -12.1446,12.402 -13.918,12.402 -7.5898,-0.351 -8.3125,0.637 -8.125,4.152 -3.8359,-4.367 -2.543,-8.261 0.7109,-10.136 -0.4492,-2.629 -4.6484,-4.68 -7.2343,-5.254 6.1601,-5.723 13.3086,-2.317 16.7265,0.926 0.2618,0.234 0.5039,0.449 0.75,0.664 1.2344,-2.188 2.1289,-6.153 2.1289,-8.438 -5.7617,0.313 -6.7929,-4.148 -6.7929,-5.75 7.3281,3.027 8.1172,-10.988 10.0429,-13.254 -1.875,0.129 -5.1718,4.453 -10.0429,4.766 -5.8594,0.371 -7.9297,-2.754 -10.3086,-2.637 0.4453,-4.129 5.4844,-6.465 8.7461,-6.961 -1.6563,-4.238 -0.1953,-7.121 3.2617,-8.164 0,3.875 4.9062,5.086 10.168,2 6.3164,-3.672 9.5625,-4.004 14.6445,-2.441 -0.8399,-1.844 -3.125,-2.02 -5.9375,-4.785 -3.918,-3.875 -4.0469,-8.934 -8.4414,-10.762 5.1523,-2.449 12.9101,0.976 14.0234,2.949 2.1524,-1.336 4.9219,-0.547 5.6797,0.813 -3.4805,7.722 2.4023,12.312 4.7188,12.226 0,0 1.039,2.305 -0.0821,2.235 l 0,0"
             id="path28"
             style="fill:#231f20;fill-opacity:1;fill-rule:nonzero;stroke:none" /><path
             d="m 141.699,174.473 c 2.594,1.867 4.239,2.687 5.59,3.476 2.227,-0.078 6.07,0.188 8.391,1.348 -2.414,-2.957 -2.684,-4.024 -6.614,-4.453 5.094,-0.457 7.239,-5.008 9.743,-5.711 -8.497,-2.59 -9.352,5.84 -17.11,5.34 l 0,0 z m 10.492,-25.411 c 2.543,-2.078 1.711,-5.039 1.11,-5.703 -2.215,3.848 -9.363,2.5 -16.375,-5.398 -0.496,-0.598 -1.156,-1.27 -1.93,-1.965 0.539,9.473 -7.207,9.629 -9.484,8.664 0.254,2.723 1.949,4.59 2.847,4.863 -2.273,2.637 -2.773,5.977 -3.031,8.387 3.793,-1.64 9.402,-6.062 10.348,-13.699 l 2.453,1.648 c -0.731,13.352 -0.574,13.313 -0.664,22.375 -0.016,1.258 0.051,4.227 4.082,3.907 0.168,-3.36 0.68,-12.317 0.508,-24.758 l 1.441,0 c 1.289,3.476 5.891,7.539 11.238,7.179 3.668,-0.234 4.918,-0.167 7.024,0.762 -1.715,-4.152 -7.957,-5.976 -9.567,-6.262 l 0,0 z m -7.718,4.661 c 0,8.601 -0.313,15.683 -0.411,17.91 0.329,-0.078 0.665,-0.195 1.04,-0.324 6.175,-2.157 7.593,-9.598 20.351,-1.161 -6.832,-0.8 -7.191,5 -10.312,5.125 4.722,2.676 5.047,8.84 5.047,8.84 -3.981,-3.195 -13.161,-3.39 -14.958,-4.445 -2.382,-1.445 -5.375,-3.184 -7.414,-4.297 -5.304,-2.891 -1.605,-18.621 -2.14,-24.383 -2.864,8.574 -8.656,7.285 -11.699,12.196 -2.282,-4.09 0.14,-10.977 1.074,-12.938 -3.309,-2.687 -2.414,-7.648 -1.61,-8.965 2.821,2.02 7.18,1.504 8.5,-1.906 -3.699,-2.254 -9.894,-2.656 -14.121,1.437 l -1.515,-1.691 c 2.98,-3.953 10.465,-5.476 16.035,-2.293 -0.02,-0.898 -0.215,-1.914 -0.586,-3.027 -2.891,-1.524 -6.625,-2.363 -10.899,-0.891 0.586,-4.316 5.547,-7.539 10.262,-8.848 -1.59,-1.23 -3.562,-1.726 -4.984,-1.562 0.887,-2.488 1.379,-5.828 -0.496,-8.457 -2.36,1.555 -3.617,3.125 -4.508,9.18 -0.902,6.066 -5.27,12.246 -8.656,13.496 -0.192,-2.149 -0.192,-1.211 0.179,-2.598 9.02,-6.621 3.91,-18.523 13.293,-22.812 3.434,3.937 3.481,5.304 2.95,9.015 3.394,0.899 5.929,3.738 6.824,5.946 -3.207,-1.524 -8.301,1.152 -9.727,3.253 5.574,0.176 10.746,4.395 16.028,9.911 4.726,4.941 11.027,4.199 10.535,0.312 3.261,0.488 4.554,4.953 3.476,7.813 4.781,1.503 8.539,5.05 9.051,10.578 -6.394,-3.215 -14.539,2.109 -20.609,-4.414 l 0,0"
             id="path30"
             style="fill:#231f20;fill-opacity:1;fill-rule:nonzero;stroke:none" /><path
             d="m 109.746,124.395 c -0.445,0 -0.84,-0.215 -1.09,-0.536 -0.476,0.079 -0.992,0.157 -1.515,0.203 l 0.011,2.766 c 0.5,0.203 0.836,0.703 0.836,1.27 0,0.761 -0.609,1.386 -1.367,1.386 -0.766,0 -1.387,-0.625 -1.387,-1.386 0,-0.52 0.293,-0.977 0.719,-1.203 l -0.023,-2.665 c -0.469,0.047 -0.953,0.098 -1.457,0.137 -0.211,0.488 -0.684,0.821 -1.246,0.821 -0.77,0 -1.379,-0.606 -1.379,-1.379 0,-0.762 0.609,-1.375 1.379,-1.375 0.48,0 0.914,0.242 1.148,0.632 0.543,-0.058 1.055,-0.105 1.555,-0.164 l -0.051,-4.035 c -0.434,-0.234 -0.734,-0.683 -0.734,-1.219 0,-0.761 0.613,-1.378 1.375,-1.378 0.765,0 1.39,0.617 1.39,1.378 0,0.555 -0.336,1.043 -0.82,1.25 l 0.043,3.856 c 0.465,-0.059 0.887,-0.125 1.305,-0.203 0.199,-0.539 0.699,-0.93 1.308,-0.93 0.758,0 1.371,0.625 1.371,1.387 0,0.762 -0.613,1.387 -1.371,1.387 l 0,0"
             id="path32"
             style="fill:#231f20;fill-opacity:1;fill-rule:nonzero;stroke:none" /><path
             d="m 97.7773,125.188 c -0.5585,0 -1.0507,-0.333 -1.2695,-0.821 -0.4805,-0.039 -0.9844,-0.09 -1.4453,-0.137 l -0.0234,2.665 c 0.4257,0.226 0.7265,0.683 0.7265,1.203 0,0.761 -0.625,1.386 -1.375,1.386 -0.7734,0 -1.3945,-0.625 -1.3945,-1.386 0,-0.567 0.3437,-1.067 0.8281,-1.27 l 0.0391,-2.766 c -0.5235,-0.046 -1.0391,-0.124 -1.5352,-0.203 -0.2304,0.321 -0.625,0.536 -1.0742,0.536 -0.7656,0 -1.3828,-0.625 -1.3828,-1.387 0,-0.762 0.6172,-1.387 1.3828,-1.387 0.6055,0 1.1133,0.391 1.3047,0.93 0.4141,0.078 0.8437,0.144 1.3047,0.203 l 0.039,-3.856 c -0.4804,-0.207 -0.8125,-0.695 -0.8125,-1.25 0,-0.761 0.6211,-1.378 1.375,-1.378 0.7696,0 1.3829,0.617 1.3829,1.378 0,0.536 -0.3047,0.985 -0.7344,1.219 l -0.0313,4.035 c 0.4883,0.059 1.0039,0.106 1.5274,0.164 0.2461,-0.39 0.6758,-0.632 1.1679,-0.632 0.7579,0 1.3789,0.613 1.3789,1.375 0,0.773 -0.621,1.379 -1.3789,1.379 l 0,0"
             id="path34"
             style="fill:#231f20;fill-opacity:1;fill-rule:nonzero;stroke:none" /><path
             d="m 100.504,113.496 c -2.0548,-3.934 -5.879,-3.808 -9.2071,-1.601 -1.336,0.871 -2.7071,1.457 -3.9688,1.66 0.5821,3.867 1.5274,11.164 2.2188,17.324 4.3164,1.953 9.6484,2.402 10.9571,-2.559 1.308,4.961 6.629,4.512 10.941,2.559 0.688,-6.16 1.645,-13.457 2.227,-17.324 -1.25,-0.203 -2.637,-0.789 -3.981,-1.66 -3.324,-2.207 -7.14,-2.333 -9.187,1.601 l 0,0 z m 15.594,-0.137 c -0.828,5.567 -2.84,21.145 -3.075,26.348 l -2.363,-0.098 c 0.028,-0.898 0.121,-2.058 0.238,-3.425 -2.847,0.828 -6.578,1.425 -10.394,1.425 -3.8087,0 -7.5587,-0.597 -10.4102,-1.425 0.125,1.367 0.2148,2.527 0.2578,3.425 l -2.3828,0.098 c -0.2305,-5.203 -2.2383,-20.781 -3.0665,-26.348 -1.4296,-0.547 -2.3476,-1.972 -2.3476,-4.511 0,0 12.9375,-0.184 17.9493,-0.184 5,0 17.93,0.184 17.93,0.184 0,2.539 -0.93,3.964 -2.336,4.511 l 0,0"
             id="path36"
             style="fill:#231f20;fill-opacity:1;fill-rule:nonzero;stroke:none" /><path
             d="m 170.32,2.28516 -139.6364,0 c -0.6289,4.43359 -1.4805,7.28515 -2.2422,9.69924 l 144.1136,0 c -0.77,-2.41409 -1.61,-5.26565 -2.235,-9.69924 l 0,0 z M 75.6719,32.1602 c 1.2851,-1.9063 2.5156,-3.293 3.1015,-4.8164 0.6172,-1.6016 0.2149,-2.5586 -0.9492,-4.2188 C 75.1641,19.4141 70.5859,16.2227 66.957,14.25 l -13.9882,0 c 8.789,2.5078 20.6796,10.0273 22.7031,17.9102 l 0,0 z m -8.4805,2.5859 c 1.1484,2.1211 3.918,2.793 5.7969,0.2734 0.8086,-1.0625 0.4687,-3.9336 -2.8477,-7.5 -2.3906,2.1797 -4.1679,4.9727 -2.9492,7.2266 l 0,0 z M 122.992,23.125 c -1.172,1.6602 -1.566,2.6172 -0.957,4.2188 0.594,1.5234 1.828,2.9101 3.11,4.8164 2.027,-7.8829 13.917,-15.4024 22.703,-17.9102 l -14,0 c -3.61,1.9727 -8.196,5.1641 -10.856,8.875 l 0,0 z m 4.824,11.8945 c 1.895,2.5196 4.661,1.8477 5.805,-0.2734 1.219,-2.2539 -0.551,-5.0469 -2.945,-7.2266 -3.297,3.5664 -3.656,6.4375 -2.86,7.5 l 0,0 z m 45.27,-20.0468 c -1.5,-0.461 -3.313,-0.7227 -6.031,-0.7227 l -3.371,0 c -11.618,0.2344 -23.567,3.6992 -30.891,11.1797 10.121,10.207 -1.758,18.6055 -8.188,9.9414 -2.003,-2.7031 -3.597,-4.6172 -4.992,-7.2344 -1.133,-2.1289 -0.277,-4.2383 2.227,-7.5 1.379,-1.789 4.797,-4.5625 7.598,-6.3867 l -58.0513,0 c 2.7891,1.8242 6.2071,4.5977 7.5977,6.3867 2.5,3.2617 3.3594,5.3711 2.2383,7.5 -1.3985,2.6172 -2.9961,4.5313 -5.0079,7.2344 -6.4257,8.6641 -18.3007,0.2656 -8.1875,-9.9414 C 60.707,17.9492 48.7734,14.4844 37.1445,14.25 l -3.2109,0 c -2.7188,0 -4.5391,0.2617 -6.0313,0.7227 -2.4062,0.5859 -2.9414,-0.461 -1.6406,-4.6016 C 27.1523,7.60938 27.8555,3.09766 28.1797,0 L 172.832,0 c 0.305,3.09766 1.012,7.60938 1.902,10.3711 1.289,4.1406 0.762,5.1875 -1.648,4.6016 l 0,0"
             id="path38"
             style="fill:#231f20;fill-opacity:1;fill-rule:nonzero;stroke:none" /><path
             d="m 47.3711,5.83984 c -0.043,0 -0.0508,0.03125 -0.043,0.07032 l 1.0469,2.76172 c 0.0078,0.01953 0.0234,0.05859 0.0508,0.05859 0.0156,0 0.0273,-0.03906 0.0312,-0.05859 l 1.0235,-2.77344 c 0.0156,-0.02735 0,-0.0586 -0.043,-0.0586 l -2.0664,0 0,0 z m 2.2383,-0.39843 c 0.0234,0 0.0625,-0.01953 0.0781,-0.0586 l 0.375,-1.02734 C 50.1055,4.25 50.0586,4.17188 49.9883,4.15234 c -0.0821,0 -0.1172,-0.01172 -0.1172,-0.07031 0,-0.07812 0.1094,-0.07812 0.2578,-0.07812 0.6563,0 1.2578,0 1.5703,0 0.293,0 0.3594,0 0.3594,0.07812 0,0.05859 -0.0352,0.07031 -0.0898,0.07031 -0.0977,0 -0.2305,0 -0.3594,0.03907 -0.1758,0.03906 -0.4141,0.14453 -0.7188,0.88671 -0.5312,1.26172 -1.8515,4.64063 -2.0429,5.08988 -0.0938,0.1836 -0.1407,0.2734 -0.2149,0.2734 -0.082,0 -0.1367,-0.1094 -0.2344,-0.3437 L 46.3203,4.89453 C 46.1602,4.48438 45.9961,4.21875 45.625,4.16016 45.5469,4.15234 45.4297,4.15234 45.3555,4.15234 c -0.0586,0 -0.0977,-0.01172 -0.0977,-0.07031 0,-0.07812 0.0586,-0.07812 0.1563,-0.07812 0.4297,0 0.8789,0 0.9765,0 0.2696,0 0.6172,0 0.8906,0 0.0782,0 0.129,0 0.129,0.07812 0,0.05859 -0.0274,0.07031 -0.125,0.07031 l -0.129,0 c -0.246,0 -0.3203,0.09766 -0.3203,0.26172 0,0.08985 0.0391,0.28516 0.1172,0.48047 l 0.1719,0.46875 c 0.0195,0.0586 0.0312,0.07813 0.0664,0.07813 l 2.418,0 0,0"
             id="path40"
             style="fill:#231f20;fill-opacity:1;fill-rule:nonzero;stroke:none" /><path
             d="m 53.7344,6.65234 c 0,-1.20312 0.3125,-1.8164 0.7422,-2.19922 0.5976,-0.53515 1.3867,-0.55468 1.8203,-0.55468 0.5429,0 1.1562,0.05859 1.7226,0.58594 0.6953,0.58593 0.8008,1.58203 0.8008,2.5 l 0,0.8789 c 0,1.25 0,1.48438 0.0078,1.73828 0.0196,0.29297 0.0742,0.42964 0.2969,0.47654 0.1016,0 0.1602,0.0196 0.25,0.0196 0.0977,0 0.1406,0.0195 0.1406,0.0703 0,0.0664 -0.0468,0.0781 -0.1718,0.0781 -0.3126,0 -0.836,-0.0195 -0.9454,-0.0195 0,0 -0.5234,0.0195 -0.9375,0.0195 -0.1211,0 -0.1836,-0.0117 -0.1836,-0.0781 0,-0.0508 0.0508,-0.0703 0.1485,-0.0703 0.0859,0 0.2226,-0.0196 0.2969,-0.0196 0.2695,-0.0586 0.3398,-0.18357 0.3476,-0.47654 0.0156,-0.2539 0.0156,-0.48828 0.0156,-1.73828 l 0,-1.02734 c 0,-0.88672 -0.0234,-1.6211 -0.4687,-2.0586 -0.3399,-0.34375 -0.7852,-0.44922 -1.1484,-0.44922 -0.2813,0 -0.6602,0.03907 -1.0235,0.32032 C 55.0352,4.98047 54.7891,5.5 54.7891,6.69141 l 0,1.17187 c 0,1.25 0,1.48438 0.0156,1.73828 0.0117,0.29297 0.0898,0.42964 0.3008,0.47654 0.1054,0 0.1523,0.0196 0.25,0.0196 0.0898,0 0.1367,0.0195 0.1367,0.0703 0,0.0664 -0.0742,0.0781 -0.1914,0.0781 -0.2891,0 -0.8242,-0.0195 -1.0196,-0.0195 -0.25,0 -0.7656,0.0195 -1.1992,0.0195 -0.1132,0 -0.1953,-0.0117 -0.1953,-0.0781 0,-0.0508 0.0547,-0.0703 0.1485,-0.0703 0.121,0 0.2539,-0.0196 0.3086,-0.0196 0.289,-0.0586 0.3515,-0.18357 0.375,-0.47654 0.0156,-0.2539 0.0156,-0.48828 0.0156,-1.73828 l 0,-1.21094"
             id="path42"
             style="fill:#231f20;fill-opacity:1;fill-rule:nonzero;stroke:none" /><path
             d="m 63.3477,7.98828 c 0,0.64453 0,1.35938 0.0078,1.65234 0,0.08594 0.0351,0.14454 0.0976,0.16407 0.0742,0.03125 0.375,0.07031 0.5352,0.07031 0.6562,0 1.6015,-0.09766 2.3594,-0.83984 0.3554,-0.34375 0.7968,-1.01563 0.7968,-2.05078 0,-0.85157 -0.1718,-1.6211 -0.6992,-2.08985 -0.5078,-0.41015 -1.0586,-0.58594 -1.8984,-0.58594 -0.6602,0 -0.9766,0.17579 -1.0938,0.33203 -0.0547,0.08594 -0.0781,0.42969 -0.0859,0.63282 -0.0117,0.15625 -0.0195,0.82031 -0.0195,1.67968 l 0,1.03516 z M 62.3203,6.40625 c 0,-0.76953 0,-1.42578 -0.043,-1.76563 C 62.2422,4.39453 62.2031,4.21875 62.0352,4.19141 61.9648,4.16016 61.8594,4.15234 61.7383,4.15234 c -0.1016,0 -0.1328,-0.01953 -0.1328,-0.07031 0,-0.07812 0.0507,-0.07812 0.1718,-0.07812 0.3321,0 0.8438,0 1.0352,0 0.4141,0 1.1563,-0.08594 1.7734,-0.08594 1.5235,0 2.3711,0.59375 2.7657,0.97656 0.4648,0.48828 0.9062,1.28906 0.9062,2.3125 0,0.98828 -0.3984,1.67969 -0.8164,2.10156 -0.8828,0.93751 -2.2852,0.93751 -3.3047,0.93751 -0.5,0 -1.0156,-0.0195 -1.2812,-0.0195 -0.2344,0 -0.7461,0.0195 -1.1993,0.0195 -0.1132,0 -0.1718,-0.0117 -0.1718,-0.0781 0,-0.0508 0.0468,-0.0703 0.125,-0.0703 0.1289,0 0.2656,-0.0196 0.3398,-0.0196 0.2617,-0.0586 0.336,-0.18357 0.3438,-0.47654 0.0273,-0.2539 0.0273,-0.48828 0.0273,-1.73828 l 0,-1.45703"
             id="path44"
             style="fill:#231f20;fill-opacity:1;fill-rule:nonzero;stroke:none" /><path
             d="m 71.4609,5.83984 c -0.0312,0 -0.0468,0.03125 -0.0312,0.07032 l 1.0312,2.76172 c 0.0079,0.01953 0.0235,0.05859 0.0547,0.05859 0.0196,0 0.0313,-0.03906 0.0391,-0.05859 l 1.0195,-2.77344 c 0.0039,-0.02735 0,-0.0586 -0.0469,-0.0586 l -2.0664,0 0,0 z m 2.2305,-0.39843 c 0.043,0 0.0625,-0.01953 0.0781,-0.0586 L 74.1641,4.35547 C 74.1992,4.25 74.1406,4.17188 74.082,4.15234 c -0.0898,0 -0.125,-0.01172 -0.125,-0.07031 0,-0.07812 0.1094,-0.07812 0.2578,-0.07812 0.6641,0 1.2735,0 1.5586,0 0.3164,0 0.3868,0 0.3868,0.07812 0,0.05859 -0.0469,0.07031 -0.1055,0.07031 -0.0977,0 -0.2305,0 -0.3555,0.03907 -0.1719,0.03906 -0.4023,0.14453 -0.7226,0.88671 -0.5274,1.26172 -1.8516,4.64063 -2.0586,5.08988 -0.086,0.1836 -0.1368,0.2734 -0.2032,0.2734 -0.082,0 -0.121,-0.1094 -0.2304,-0.3437 L 70.4102,4.89453 C 70.25,4.48438 70.082,4.21875 69.7031,4.16016 69.6562,4.15234 69.5312,4.15234 69.4492,4.15234 c -0.0625,0 -0.1094,-0.01172 -0.1094,-0.07031 0,-0.07812 0.0586,-0.07812 0.168,-0.07812 0.4336,0 0.8828,0 0.9766,0 0.2578,0 0.6172,0 0.8672,0 0.0976,0 0.1484,0 0.1484,0.07812 0,0.05859 -0.0312,0.07031 -0.1172,0.07031 l -0.1367,0 c -0.2461,0 -0.3242,0.09766 -0.3242,0.26172 0,0.08985 0.039,0.28516 0.1172,0.48047 l 0.1757,0.46875 c 0.0157,0.0586 0.0313,0.07813 0.0821,0.07813 l 2.3945,0 0,0"
             id="path46"
             style="fill:#231f20;fill-opacity:1;fill-rule:nonzero;stroke:none" /><path
             d="m 81.7734,9.39453 c 0.2618,0.39063 0.4141,0.61717 0.6055,0.66407 0.1172,0.0195 0.2188,0.0391 0.293,0.0391 0.082,0 0.1367,0.0195 0.1367,0.0703 0,0.0586 -0.0547,0.0781 -0.1445,0.0781 -0.3125,0 -0.6368,-0.0195 -0.8164,-0.0195 -0.1485,0 -0.5,0.0195 -0.8204,0.0195 -0.1171,0 -0.1796,-0.0195 -0.1796,-0.0781 0,-0.0508 0.0625,-0.0703 0.1015,-0.0703 0.0703,0 0.1836,0 0.2735,-0.0196 0.0742,-0.0195 0.1406,-0.08591 0.1406,-0.13669 0,-0.06641 -0.0235,-0.21485 -0.0938,-0.33203 -0.1172,-0.22266 -0.8867,-1.375 -1.1328,-1.72657 -0.3203,0.54688 -0.6914,1.15235 -1.0429,1.83594 -0.0547,0.07813 -0.0899,0.17578 -0.0899,0.22266 0,0.05078 0.0234,0.08979 0.1016,0.13669 0.0625,0 0.1757,0.0196 0.2304,0.0196 0.0625,0 0.1172,0.0195 0.1172,0.0703 0,0.0664 -0.0547,0.0781 -0.1679,0.0781 -0.3008,0 -0.7696,-0.0195 -0.8868,-0.0195 -0.3867,0 -1.0625,0.0195 -1.2539,0.0195 -0.1133,0 -0.1679,-0.0117 -0.1679,-0.0586 0,-0.0703 0.0351,-0.0898 0.082,-0.0898 0.0859,0 0.2266,-0.0196 0.3476,-0.0665 0.3008,-0.07026 0.4844,-0.26558 0.6836,-0.60542 L 79.5273,7.08203 77.9414,4.80469 C 77.6562,4.41406 77.5,4.25 77.2656,4.19141 77.1328,4.15234 77.0117,4.15234 76.9492,4.15234 c -0.0703,0 -0.1133,-0.01953 -0.1133,-0.07031 0,-0.07812 0.043,-0.07812 0.1211,-0.07812 l 0.1524,0 c 0.1328,0 0.5273,0 0.6875,0 0.2148,0 0.7304,0 0.7812,0 l 0.1407,0 c 0.1093,0 0.1718,0 0.1718,0.07812 0,0.05078 -0.0586,0.07031 -0.1015,0.07031 -0.0703,0 -0.1407,0 -0.1914,0.00782 -0.0704,0.03125 -0.1485,0.07031 -0.1602,0.14843 -0.0039,0.08594 0.043,0.21485 0.1133,0.33203 l 1.2304,1.99219 C 80.1602,6.01562 80.6406,5.1875 81.0938,4.39453 81.1562,4.27734 81.1211,4.19922 81.0703,4.19141 80.9961,4.17188 80.9531,4.15234 80.9531,4.10156 c 0,-0.04687 0.0742,-0.09765 0.293,-0.09765 0.6406,0 1.2851,0 1.4727,0 l 0.2578,0 c 0.0898,0 0.1523,0 0.1523,0.07812 0,0.05859 -0.043,0.07031 -0.1016,0.07031 -0.0781,0 -0.1718,0 -0.3125,0.04688 -0.2187,0.05859 -0.3476,0.16797 -0.4843,0.35156 -0.1953,0.25391 -1.543,2.5 -1.8125,2.91016 l 1.3554,1.93359 0,0"
             id="path48"
             style="fill:#231f20;fill-opacity:1;fill-rule:nonzero;stroke:none" /><path
             d="m 93.0664,5.83984 c -0.0352,0 -0.0469,0.03125 -0.0352,0.07032 l 1.0196,2.76172 c 0.0234,0.01953 0.0312,0.05859 0.0664,0.05859 0.0156,0 0.0234,-0.03906 0.0351,-0.05859 l 1.0586,-2.78126 c 0.0039,-0.01953 0,-0.05078 -0.0468,-0.05078 l -2.0977,0 0,0 z m 2.2344,-0.39843 c 0.043,0 0.0664,-0.01953 0.0742,-0.0586 L 95.7617,4.35547 C 95.7969,4.25 95.7461,4.17188 95.6836,4.15234 c -0.082,0 -0.1133,-0.01172 -0.1133,-0.07031 0,-0.07812 0.1016,-0.07812 0.25,-0.07812 0.6524,0 1.2539,0 1.5664,0 0.2969,0 0.3672,0 0.3672,0.07812 0,0.05859 -0.0391,0.07031 -0.1055,0.07031 -0.0898,0 -0.2187,0 -0.3437,0.03907 -0.1641,0.03906 -0.4141,0.14453 -0.7266,0.88671 -0.5351,1.26172 -1.8476,4.64063 -2.0508,5.08988 -0.0781,0.1836 -0.1367,0.2734 -0.2148,0.2734 -0.0742,0 -0.1289,-0.1094 -0.2305,-0.3437 L 92.0078,4.89453 C 91.8516,4.48438 91.6836,4.21875 91.2969,4.16016 91.2461,4.15234 91.1172,4.15234 91.0508,4.15234 c -0.0664,0 -0.0977,-0.01172 -0.0977,-0.07031 0,-0.07812 0.0547,-0.07812 0.1563,-0.07812 0.4297,0 0.8789,0 0.9765,0 0.2422,0 0.6094,0 0.8672,0 0.1094,0 0.1485,0 0.1485,0.07812 0,0.05859 -0.0235,0.07031 -0.1289,0.07031 l -0.1133,0 c -0.2617,0 -0.336,0.09766 -0.336,0.26172 0,0.08985 0.0352,0.28516 0.1289,0.48047 l 0.1641,0.46875 c 0.0274,0.0586 0.043,0.07813 0.0742,0.07813 l 2.4102,0 0,0"
             id="path50"
             style="fill:#231f20;fill-opacity:1;fill-rule:nonzero;stroke:none" /><path
             d="m 100.375,6.40625 c 0,-0.76953 0,-1.42578 -0.039,-1.76563 -0.024,-0.24609 -0.078,-0.42187 -0.238,-0.44921 -0.071,-0.03125 -0.1722,-0.03907 -0.2933,-0.03907 -0.0977,0 -0.1328,-0.01953 -0.1328,-0.07031 0,-0.07812 0.0703,-0.07812 0.164,-0.07812 0.3281,0 0.8631,0 1.0471,0 0.23,0 0.758,0 1.305,0 0.093,0 0.152,0 0.152,0.07812 0,0.05078 -0.043,0.07031 -0.145,0.07031 -0.117,0 -0.297,0.00782 -0.402,0.03907 -0.246,0.02734 -0.316,0.20312 -0.34,0.42968 -0.043,0.35938 -0.043,1.01563 -0.043,1.78516 l 0,3.39063 1.047,-0.01954 c 0.734,-0.03906 0.957,-0.26562 0.981,-0.48828 l 0,-0.07031 c 0.019,-0.125 0.035,-0.16406 0.097,-0.16406 0.039,0 0.07,0.05859 0.074,0.11719 0,0.22265 0.028,0.78906 0.028,0.96482 0,0.1172 -0.008,0.168 -0.067,0.168 -0.07,0 -0.269,-0.0781 -0.8,-0.0781 l -3.2739,0 c -0.2773,0 -0.582,0.0195 -0.8242,0.0273 -0.2031,0.0313 -0.2891,0.1172 -0.3516,0.1172 -0.0469,0 -0.082,-0.0469 -0.1055,-0.1563 -0.0195,-0.0664 -0.164,-0.82027 -0.164,-0.94527 0,-0.10937 0.0117,-0.14844 0.0586,-0.14844 0.0586,0 0.0859,0.03907 0.0976,0.09766 0.0157,0.07031 0.0664,0.17578 0.1407,0.29297 0.125,0.20703 0.3242,0.21484 0.8046,0.2539 l 1.2227,0.03126 0,-3.39063"
             id="path52"
             style="fill:#231f20;fill-opacity:1;fill-rule:nonzero;stroke:none" /><path
             d="m 114.773,7.08203 c 0,0.03906 0.016,0.04688 0.071,0.04688 0.133,0 1.008,0 1.215,-0.01953 0.253,-0.02735 0.386,-0.17579 0.425,-0.27344 0.024,-0.11719 0.043,-0.20313 0.043,-0.27344 0,-0.04688 0.02,-0.125 0.082,-0.125 0.071,0 0.071,0.10547 0.071,0.17578 0,0.0586 0.019,0.4375 0.035,0.59375 0.023,0.26563 0.066,0.46875 0.066,0.50781 0,0.05078 -0.011,0.07813 -0.043,0.07813 -0.058,0 -0.078,-0.02735 -0.113,-0.08594 -0.082,-0.09765 -0.195,-0.13672 -0.355,-0.13672 -0.122,-0.01953 -0.239,-0.01953 -0.372,-0.01953 l -1.054,-0.01172 c -0.063,0 -0.071,0.03125 -0.071,0.08985 l 0,2.05859 c 0,0.09766 0.028,0.11719 0.09,0.11719 l 1.254,-0.01953 c 0.328,0 0.5,-0.14454 0.563,-0.25391 0.05,-0.11719 0.05,-0.24219 0.05,-0.3125 0.008,-0.09766 0.016,-0.125 0.079,-0.125 0.046,0 0.066,0.02734 0.078,0.10547 0.015,0.08984 0.027,0.59766 0.031,0.67578 0.035,0.2031 0.07,0.3125 0.07,0.3711 0,0.0391 -0.015,0.0781 -0.05,0.0781 -0.043,0 -0.083,-0.039 -0.129,-0.0703 -0.079,-0.0078 -0.184,-0.0078 -0.34,-0.0195 -0.192,-0.0078 -1.875,-0.0078 -2.176,-0.0078 -0.25,0 -0.77,0.0195 -1.203,0.0195 -0.129,0 -0.176,-0.0117 -0.176,-0.0781 0,-0.0508 0.039,-0.0703 0.129,-0.0703 0.109,0 0.262,-0.0196 0.332,-0.0196 0.27,-0.0586 0.32,-0.18357 0.34,-0.47654 0.015,-0.2539 0.015,-0.48828 0.015,-1.73828 l 0,-1.45703 c 0,-0.82031 0,-1.42578 -0.039,-1.76563 -0.035,-0.24609 -0.07,-0.42187 -0.234,-0.44921 -0.066,-0.03125 -0.168,-0.03907 -0.305,-0.03907 -0.101,0 -0.109,-0.01953 -0.109,-0.07031 0,-0.07812 0.047,-0.07812 0.164,-0.07812 0.316,0 0.836,0 1.039,0 0.231,0 0.75,0 1.266,0 0.129,0 0.179,0 0.179,0.07812 0,0.05078 -0.043,0.07031 -0.125,0.07031 -0.121,0 -0.296,0.00782 -0.425,0.03907 -0.246,0.02734 -0.297,0.20312 -0.321,0.44921 -0.047,0.33985 -0.047,0.94532 -0.047,1.76563 l 0,0.67578"
             id="path54"
             style="fill:#231f20;fill-opacity:1;fill-rule:nonzero;stroke:none" /><path
             d="m 120.062,6.40625 c 0,-0.82031 0,-1.46484 -0.027,-1.81641 -0.023,-0.22265 -0.074,-0.37109 -0.234,-0.39843 -0.074,-0.03125 -0.184,-0.03907 -0.297,-0.03907 -0.109,0 -0.141,-0.01953 -0.141,-0.07031 0,-0.07812 0.067,-0.07812 0.172,-0.07812 0.328,0 0.848,0 1.035,0 0.215,0 0.746,0 1.293,0 0.078,0 0.157,0 0.157,0.07812 0,0.05078 -0.047,0.07031 -0.133,0.07031 -0.141,0 -0.317,0.00782 -0.422,0.03907 -0.25,0.02734 -0.309,0.17578 -0.336,0.39843 -0.024,0.35157 -0.024,0.9961 -0.024,1.81641 l 0,1.45703 c 0,1.25 0,1.48438 0.012,1.73828 0.012,0.29297 0.078,0.42964 0.309,0.47654 0.09,0 0.16,0.0196 0.25,0.0196 0.07,0 0.125,0.0195 0.125,0.0898 0,0.0469 -0.067,0.0586 -0.18,0.0586 -0.305,0 -0.801,-0.0195 -1.012,-0.0195 -0.226,0 -0.746,0.0195 -1.058,0.0195 -0.137,0 -0.199,-0.0117 -0.199,-0.0586 0,-0.0703 0.043,-0.0898 0.128,-0.0898 0.094,0 0.204,-0.0196 0.29,-0.0196 0.191,-0.0586 0.265,-0.18357 0.285,-0.47654 0.007,-0.2539 0.007,-0.48828 0.007,-1.73828 l 0,-1.45703"
             id="path56"
             style="fill:#231f20;fill-opacity:1;fill-rule:nonzero;stroke:none" /><path
             d="m 126.047,7.98828 c 0,0.64453 0,1.35938 0,1.65234 0,0.08594 0.043,0.14454 0.121,0.16407 0.059,0.03125 0.359,0.07031 0.527,0.07031 0.653,0 1.594,-0.09766 2.364,-0.83984 0.339,-0.34375 0.769,-1.01563 0.769,-2.05078 0,-0.85157 -0.156,-1.6211 -0.687,-2.08985 -0.496,-0.41015 -1.051,-0.58594 -1.899,-0.58594 -0.648,0 -0.98,0.17579 -1.074,0.33203 -0.07,0.08594 -0.082,0.42969 -0.098,0.63282 -0.023,0.15625 -0.023,0.82031 -0.023,1.67968 l 0,1.03516 z M 125.02,6.40625 c 0,-0.76953 0,-1.42578 -0.055,-1.76563 -0.016,-0.24609 -0.067,-0.42187 -0.231,-0.44921 -0.082,-0.03125 -0.179,-0.03907 -0.304,-0.03907 -0.082,0 -0.133,-0.01953 -0.133,-0.07031 0,-0.07812 0.078,-0.07812 0.18,-0.07812 0.328,0 0.855,0 1.035,0 0.41,0 1.164,-0.08594 1.773,-0.08594 1.508,0 2.383,0.59375 2.766,0.97656 0.457,0.48828 0.902,1.28906 0.902,2.3125 0,0.98828 -0.394,1.67969 -0.812,2.10156 -0.899,0.93751 -2.286,0.93751 -3.317,0.93751 -0.48,0 -1.023,-0.0195 -1.273,-0.0195 -0.219,0 -0.746,0.0195 -1.176,0.0195 -0.145,0 -0.195,-0.0117 -0.195,-0.0781 0,-0.0508 0.05,-0.0703 0.152,-0.0703 0.098,0 0.246,-0.0196 0.32,-0.0196 0.266,-0.0586 0.328,-0.18357 0.352,-0.47654 0.016,-0.2539 0.016,-0.48828 0.016,-1.73828 l 0,-1.45703"
             id="path58"
             style="fill:#231f20;fill-opacity:1;fill-rule:nonzero;stroke:none" /><path
             d="m 133.848,6.40625 c 0,-0.76953 0,-1.42578 -0.039,-1.76563 -0.036,-0.24609 -0.075,-0.42187 -0.223,-0.44921 -0.086,-0.03125 -0.188,-0.03907 -0.316,-0.03907 -0.094,0 -0.125,-0.01953 -0.125,-0.07031 0,-0.07812 0.062,-0.07812 0.171,-0.07812 0.329,0 0.844,0 1.036,0 0.488,0 1.043,-0.04688 2.289,-0.04688 0.316,0 0.394,0 0.437,0.23438 0.055,0.17578 0.113,0.72265 0.113,0.91797 0,0.07812 0,0.16406 -0.058,0.16406 -0.063,0 -0.071,-0.0586 -0.094,-0.13672 -0.059,-0.33203 -0.152,-0.51563 -0.375,-0.61328 -0.215,-0.09766 -0.555,-0.09766 -0.773,-0.09766 -0.848,0 -0.981,0.125 -0.993,0.69141 0,0.24609 0,1.01562 0,1.28906 l 0,0.64453 c 0,0.05078 0.012,0.07813 0.063,0.07813 0.195,0 0.996,-0.00782 1.16,-0.02735 0.301,-0.01953 0.422,-0.13672 0.473,-0.3125 0.011,-0.11718 0.011,-0.21484 0.031,-0.29297 0,-0.05859 0,-0.07812 0.063,-0.07812 0.07,0 0.07,0.09765 0.07,0.15625 0,0.05859 0.023,0.39062 0.035,0.54687 0.031,0.41797 0.082,0.56641 0.082,0.61329 0,0.05859 -0.043,0.05859 -0.074,0.05859 -0.043,0 -0.063,-0.02735 -0.121,-0.10547 -0.078,-0.07812 -0.196,-0.11719 -0.403,-0.11719 -0.191,-0.03125 -1.148,-0.03125 -1.312,-0.03125 -0.055,0 -0.067,0.03125 -0.067,0.10938 l 0,2.07812 c 0,0.07032 0.012,0.07813 0.067,0.07813 0.152,0 1.019,0 1.168,-0.01953 0.41,-0.0586 0.492,-0.14454 0.547,-0.30078 0.043,-0.09766 0.058,-0.23438 0.058,-0.3125 0,-0.0586 0.02,-0.10938 0.063,-0.10938 0.074,0 0.086,0.05859 0.09,0.09766 0.019,0.10937 0.035,0.46093 0.035,0.55859 0.031,0.35935 0.07,0.46875 0.07,0.52735 0,0.0391 -0.008,0.0781 -0.047,0.0781 -0.039,0 -0.101,-0.0312 -0.125,-0.039 -0.066,-0.0313 -0.199,-0.0391 -0.371,-0.0508 -0.152,-0.0078 -1.805,-0.0078 -2.066,-0.0078 -0.227,0 -0.742,0.0195 -1.18,0.0195 -0.121,0 -0.184,-0.0117 -0.184,-0.0781 0,-0.0508 0.047,-0.0703 0.137,-0.0703 0.11,0 0.262,-0.0196 0.313,-0.0196 0.289,-0.0586 0.339,-0.18357 0.359,-0.47654 0.016,-0.2539 0.016,-0.48828 0.016,-1.73828 l 0,-1.45703"
             id="path60"
             style="fill:#231f20;fill-opacity:1;fill-rule:nonzero;stroke:none" /><path
             d="m 141.316,7.86328 c 0,1.25 0,1.48438 0.012,1.73828 0.012,0.29297 0.082,0.42964 0.305,0.47654 0.105,0 0.242,0.0196 0.324,0.0196 0.098,0 0.137,0.0195 0.137,0.0703 0,0.0664 -0.055,0.0781 -0.168,0.0781 -0.317,0 -0.926,-0.0195 -1.121,-0.0195 -0.235,0 -0.743,0.0195 -1.133,0.0195 -0.125,0 -0.176,-0.0117 -0.176,-0.0781 0,-0.0508 0.043,-0.0703 0.129,-0.0703 0.117,0 0.215,-0.0196 0.281,-0.0196 0.274,-0.0586 0.328,-0.18357 0.36,-0.47654 0.011,-0.2539 0.011,-0.48828 0.011,-1.73828 l 0,-1.45703 c 0,-0.76953 0,-1.42578 -0.043,-1.76563 -0.031,-0.24609 -0.062,-0.42187 -0.25,-0.44921 -0.05,-0.03125 -0.164,-0.03907 -0.296,-0.03907 -0.098,0 -0.122,-0.01953 -0.122,-0.07031 0,-0.07812 0.047,-0.07812 0.164,-0.07812 0.332,0 0.84,0 1.036,0 0.664,0 1.238,-0.04688 2.414,-0.04688 0.425,0 0.468,0.04688 0.519,0.24219 0.071,0.23437 0.117,0.87109 0.117,0.95703 0,0.09766 0,0.13672 -0.054,0.13672 -0.071,0 -0.086,-0.04688 -0.086,-0.13672 C 143.648,5 143.57,4.77734 143.445,4.66016 c -0.199,-0.20704 -0.519,-0.22657 -0.972,-0.22657 -0.637,0 -0.848,0.05079 -0.993,0.1875 -0.164,0.15625 -0.164,0.72266 -0.164,1.78516 l 0,1.45703"
             id="path62"
             style="fill:#231f20;fill-opacity:1;fill-rule:nonzero;stroke:none" /><path
             d="m 146.469,6.40625 c 0,-0.82031 0,-1.46484 -0.031,-1.81641 -0.024,-0.22265 -0.083,-0.37109 -0.243,-0.39843 -0.078,-0.03125 -0.172,-0.03907 -0.3,-0.03907 -0.098,0 -0.133,-0.01953 -0.133,-0.07031 0,-0.07812 0.062,-0.07812 0.172,-0.07812 0.336,0 0.843,0 1.035,0 0.222,0 0.742,0 1.308,0 0.067,0 0.153,0 0.153,0.07812 0,0.05078 -0.055,0.07031 -0.153,0.07031 -0.113,0 -0.293,0.00782 -0.41,0.03907 -0.25,0.02734 -0.316,0.17578 -0.34,0.39843 -0.031,0.35157 -0.031,0.9961 -0.031,1.81641 l 0,1.45703 c 0,1.25 0,1.48438 0.02,1.73828 0.011,0.29297 0.086,0.42964 0.304,0.47654 0.11,0 0.164,0.0196 0.254,0.0196 0.09,0 0.125,0.0195 0.125,0.0898 0,0.0469 -0.062,0.0586 -0.164,0.0586 -0.324,0 -0.805,-0.0195 -1.008,-0.0195 -0.25,0 -0.757,0.0195 -1.089,0.0195 -0.126,0 -0.192,-0.0117 -0.192,-0.0586 0,-0.0703 0.051,-0.0898 0.121,-0.0898 0.11,0 0.231,-0.0196 0.309,-0.0196 0.179,-0.0586 0.269,-0.18357 0.273,-0.47654 0.02,-0.2539 0.02,-0.48828 0.02,-1.73828 l 0,-1.45703"
             id="path64"
             style="fill:#231f20;fill-opacity:1;fill-rule:nonzero;stroke:none" /><path
             d="m 152.172,3.89844 c 0.433,0 0.902,0.05859 1.32,0.33203 0.594,0.37891 0.77,0.95703 0.77,1.42578 0,0.78125 -0.36,1.35547 -1.352,2.10937 l -0.238,0.1836 c -0.668,0.51953 -0.875,0.8125 -0.875,1.17187 0,0.51953 0.375,0.8711 0.984,0.8711 0.531,0 0.774,-0.26563 0.895,-0.42188 0.187,-0.20312 0.226,-0.45703 0.226,-0.53515 0,-0.08985 0.043,-0.13672 0.086,-0.13672 0.055,0 0.09,0.0664 0.09,0.22265 0,0.66407 0.031,0.89841 0.031,0.99611 0,0.0703 -0.043,0.0976 -0.109,0.1094 -0.215,0.0586 -0.562,0.1445 -1.102,0.1445 -1.152,0 -1.918,-0.65235 -1.918,-1.56251 0,-0.67187 0.309,-1.25781 1.223,-1.96093 l 0.399,-0.29297 c 0.679,-0.53907 0.793,-0.9375 0.793,-1.33985 0,-0.42968 -0.36,-0.9375 -1.122,-0.9375 -0.496,0 -0.996,0.22657 -1.164,0.83985 -0.05,0.15625 -0.089,0.3125 -0.089,0.41015 0,0.0586 0,0.15625 -0.067,0.15625 -0.062,0 -0.094,-0.09765 -0.098,-0.21484 -0.015,-0.13672 -0.05,-0.63281 -0.05,-1.07422 0,-0.19531 0.031,-0.24219 0.156,-0.29297 0.355,-0.16406 0.734,-0.20312 1.211,-0.20312 l 0,0"
             id="path66"
             style="fill:#231f20;fill-opacity:1;fill-rule:nonzero;stroke:none" /><path
             d="m 100.504,148.352 c -4.3321,0 -9.2071,-1.028 -12.9649,-2.668 0.0547,0.832 0.3515,1.562 0.8789,2.199 2.1836,2.625 7.8672,3.562 12.086,3.562 4.203,0 9.894,-0.937 12.074,-3.562 0.531,-0.637 0.817,-1.367 0.883,-2.188 -3.758,1.649 -8.566,2.657 -12.957,2.657 l 0,0 z m 7.367,-6.114 -1.351,3.094 c 2.039,-0.391 3.992,-0.984 5.699,-1.699 l 0.789,-3.172 c -1.27,0.508 -3.024,1.211 -5.137,1.777 l 0,0 z m -12.6913,0.489 -2.2969,2.265 c 1.8828,0.477 3.875,0.781 5.8125,0.918 l 1.3787,-2.656 c -1.7537,-0.02 -3.3787,-0.234 -4.8943,-0.527 l 0,0 z m -7.4844,-2.395 -0.668,-0.281 c -0.9179,-0.371 -1.5585,-0.078 -1.789,0.371 -0.2383,0.476 -0.0977,1.269 1.0547,1.973 0.1523,0.085 0.3164,0.175 0.4648,0.253 l 2.1992,-1.808 c -0.4609,-0.195 -0.8789,-0.36 -1.2617,-0.508 l 0,0 z m 12.8087,16.262 3.109,-2.258 c -1.328,0.129 -2.441,0.148 -3.109,0.148 -0.6759,0 -1.7931,-0.019 -3.1173,-0.148 l 3.1173,2.258 0,0 z m -3.5548,8.25 c -1.2773,2.754 -1.6367,6.379 2.293,4.64 l 0.3242,-4.64 -2.6172,0 0,0 z m 2.9766,10.019 0.5782,-0.41 0.555,0.41 2.261,1.641 -1.3,-4.375 c -0.043,-0.027 -0.09,-0.027 -0.122,-0.039 -0.226,0.547 -0.777,0.91 -1.394,0.91 -0.6329,0 -1.1642,-0.363 -1.3946,-0.91 -0.043,0.012 -0.0899,0.012 -0.1406,0.039 l -1.293,4.375 2.25,-1.641 0,0 z m 3.3552,-17.91 -2.222,1.613 -0.555,0.411 -0.5782,-0.411 -2.211,-1.613 1.4375,4.668 2.6957,0 1.433,-4.668 0,0 z m 0.778,7.891 -2.621,0 0.316,4.64 c 3.926,1.739 3.562,-1.886 2.305,-4.64 l 0,0 z m -13.1371,-1.094 1.6093,2.227 0.4102,0.566 -0.4102,0.559 -1.6093,2.226 3.3008,-1.027 c 0.1718,-1.426 0.5078,-2.391 0.8671,-3.262 l -4.1679,-1.289 0,0 z m 15.8711,4.551 3.285,1.027 -1.605,-2.226 -0.414,-0.559 0.414,-0.566 1.605,-2.227 -4.172,1.289 c 0.371,0.871 0.692,1.836 0.887,3.262 l 0,0 z m 20.527,5.695 c 0.075,1.231 -2.226,2.168 -2.8,2.227 -0.965,0.066 -2.184,-1.953 -3.446,-3.223 -1.113,5.945 -0.527,8.484 0.094,11.113 2.504,-4.543 5.898,-5.527 7.687,-5.304 -6.039,4.816 -4.992,9.191 -6.835,9.425 -1.043,0.106 -1.793,0.039 -2.332,0.039 -2.11,0 -2.403,-4.093 -2.68,-5.976 -1.367,2.547 -2.715,4.676 -5.039,7.637 -2.223,5.703 -4.953,4.277 -7.723,6.875 2.149,-3.274 0.406,-5.266 5.406,-7.649 1.301,-1.238 2.821,-3.164 3.832,-4.734 -0.832,-1.106 -1.406,-1.738 -2.183,-2.492 -0.613,-0.926 -0.934,-4.473 -2.856,-7.137 2.856,1.25 3.977,2.988 4.993,4.687 9.011,-6.796 1.695,-24.191 -0.387,-28.007 -1.981,1.347 -4.528,2.097 -6.84,2.507 l -0.238,0.782 -2.118,6.855 0.973,0 c 1.129,0 1.395,0.754 1.211,1.359 l 6.219,-1.914 2.758,-0.851 -1.68,2.324 -2.898,4.004 2.898,3.965 1.68,2.344 -2.758,-0.84 -5.594,-1.727 c -0.387,1.27 -1.43,1.863 -2.582,2.031 l 1.891,6.356 0.804,2.715 -2.297,-1.66 -3.976,-2.899 -4.0001,2.899 -2.2812,1.66 0.8007,-2.715 1.8868,-6.356 c -1.1329,-0.168 -2.1797,-0.761 -2.5821,-2.031 l -5.6054,1.727 -2.7422,0.84 1.6797,-2.344 2.9023,-3.965 -2.9023,-4.004 -1.6797,-2.324 2.7422,0.851 6.2539,1.922 c -0.1836,-0.613 0.0468,-1.367 1.1953,-1.367 l 0.9765,0 -2.125,-6.855 -0.2304,-0.782 c -2.3868,-0.418 -4.9883,-1.199 -6.9922,-2.605 -6.082,11.785 -4.3633,23.699 0.7383,27.656 -0.086,-2.5 2.0859,-5.89 3.1211,-6.601 -0.6758,2.578 0.4921,7.195 -0.8438,8.347 -0.9453,0.793 -2.3633,1.192 -3.8828,1.153 1.0273,1.691 2.4531,3.839 4.8476,7.004 3.586,1.699 4.6172,5.859 5.504,7.957 -3.8907,-1.434 -6.7383,-3.438 -7.3672,-6.707 -1.3789,-1.817 -2.9063,-3.965 -4.5938,-6.504 0.086,3.074 -1.6133,4.14 -3.8515,4.316 -6.5547,-1.379 -6.0665,-6.105 -11.6836,-9.367 3.832,-1.348 9.8554,7.101 11.9101,6.152 0.3281,-5.164 -0.8515,-9.238 -0.8515,-12.051 -0.9805,1.086 -1.4766,1.828 -2.3204,1.965 -0.7929,0.145 -2.9843,-0.039 -4.5039,-1.699 -0.414,-2.609 -0.3086,-7.539 -2.7617,-13.438 3.6563,3.36 5.3945,9.922 5.9805,11.825 0.9375,-1.278 1.957,-4.11 2.1797,-6.543 0.4375,-4.715 3.332,-12.547 5.8008,-16.328 -0.6836,-1.297 -0.8868,-2.782 -0.6485,-4.414 -1.9023,-1.414 -2.1172,-3.407 -1.4648,-4.735 0.7109,-1.437 2.5898,-2.402 4.8008,-1.523 l 0.6914,0.281 c 2.3203,0.957 6.6562,2.754 11.9024,2.754 5.238,0 9.562,-1.797 11.898,-2.754 l 0.688,-0.281 c 2.222,-0.879 4.082,0.086 4.785,1.523 0.676,1.328 0.461,3.321 -1.453,4.735 0.258,1.75 -0.016,3.339 -0.817,4.738 l 0.071,-0.078 c 4.48,6.375 4.777,18.574 8.484,22.05 0.317,-4.269 2.586,-7.812 4.824,-8.3 -1.793,2.949 -1.793,8.797 -1.664,11.484 l 0,0"
             id="path68"
             style="fill:#231f20;fill-opacity:1;fill-rule:nonzero;stroke:none" /><path
             d="m 70.6836,74.6211 c -1.6758,-0.0117 -2.7344,-0.0313 -2.7578,-0.0391 -0.4102,-4.7968 -0.2188,-9.1601 0.4375,-13.1445 1.7109,2.8125 3.4297,5.6445 3.3515,7.6172 -0.0898,2.0391 -0.5586,3.8945 -1.0312,5.5664"
             id="path70"
             style="fill:#231f20;fill-opacity:1;fill-rule:nonzero;stroke:none" /><path
             d="m 80.5039,66.3203 c 0.9531,-2.6367 2.1133,-6.8359 3.0625,-9.7773 -0.8281,-0.0391 -1.6211,-0.0977 -2.3555,-0.2032 -0.4257,1.043 -1.8007,4.5118 -3.207,7.8594 -1.3281,3.1446 1.8203,3.9453 2.5,2.1211 z m 5.8047,2.8008 c 0.2187,1.5625 4.6133,1.8555 3.7852,-1.5703 -0.8243,-3.4492 -1.875,-7.4727 -2.668,-10.9375 -0.375,0 -0.7461,0.0195 -1.1172,0.0195 -0.375,0 -0.7617,-0.0195 -1.125,-0.0195 -0.7969,3.4648 -1.8398,7.4883 -2.6719,10.9375 -0.8203,3.4258 3.5664,3.1328 3.7969,1.5703 z m 8.2852,-4.9219 c -1.4102,-3.3476 -2.7774,-6.8164 -3.1915,-7.8594 -0.7461,0.1055 -1.5507,0.1641 -2.3632,0.2032 0.9492,2.9414 2.0976,7.1406 3.0742,9.7773 0.6758,1.8242 3.8125,1.0235 2.4805,-2.1211 z M 80.5312,54.3945 c 0.9415,0.3438 4.6641,0.5469 5.7774,0.5469 1.1016,0 4.8086,-0.2031 5.7617,-0.5469 0.1016,-0.4883 0.1211,-1.1797 0.043,-1.6992 -1.4414,-0.4101 -3.9414,-0.6328 -5.8047,-0.6328 -1.8867,0 -4.3789,0.2227 -5.8047,0.6328 -0.0898,0.5195 -0.0859,1.2109 0.0273,1.6992 z M 90.8984,43.4961 c -1.2539,-0.2734 -3.2578,-0.3984 -4.5898,-0.3984 -1.332,0 -3.3477,0.125 -4.6094,0.3984 0.1406,0.5391 0.3281,1.2891 0.4922,2.043 -0.9375,0.0976 -1.9062,0.4492 -2.668,0.7226 0.3828,1.3555 1,2.7031 1.5039,4.5508 1.6915,-0.3828 3.3594,-0.5195 5.2813,-0.5195 1.9102,0 3.5742,0.1367 5.2578,0.5195 0.5195,-1.8477 1.1289,-3.1953 1.5234,-4.5508 -0.7617,-0.2734 -1.7421,-0.625 -2.6796,-0.7226 0.1757,-0.7539 0.3554,-1.5039 0.4882,-2.043 z M 71.8945,74.6289 c 0.4688,-1.6601 0.9063,-3.4766 0.9883,-5.5078 C 72.9727,66.7695 71.2305,63.8789 69.375,60.832 69.1602,60.4609 68.9609,60.1172 68.7461,59.7578 74.0664,33.5664 99.4102,24.8359 99.4102,24.8359 l 0,49.7461 c 0,0 -19.0782,0.0586 -27.5157,0.0469"
             id="path72"
             style="fill:#231f20;fill-opacity:1;fill-rule:nonzero;stroke:none" /><path
             d="m 127.23,69.7188 -0.082,1.2382 1.25,0.0118 c 1.676,0.0078 2.508,1.621 2.946,3.496 -6.5,0.0469 -29.789,-0.0312 -29.789,-0.0312 l 0,-24.0313 c 1.925,1.4336 3.797,2.6172 6.242,3.3985 l 0,5.2617 2.422,0 c 0.148,5.8008 1.523,9.9922 4.222,12.7734 l 0.786,0.8282 0.793,-0.8282 c 2.695,-2.7812 4.082,-6.9726 4.218,-12.7734 l 2.516,0 0,-5.6133 c 2.668,-1.0937 4.457,-2.793 5.832,-4.582 2.199,4.4726 3.809,9.6601 4.398,15.6445 -0.117,-0.0078 -0.23,-0.039 -0.355,-0.039 -2.512,0 -5.168,1.8164 -5.399,5.2461"
             id="path74"
             style="fill:#231f20;fill-opacity:1;fill-rule:nonzero;stroke:none" /><path
             d="m 133.043,74.4336 c -0.012,0.0117 -0.207,0.0117 -0.492,0.0117 -0.586,-2.7344 -1.848,-4.6289 -4.149,-4.6484 0.184,-2.7344 2.243,-4.1407 4.227,-4.1407 0.148,0 0.309,0.0469 0.457,0.0665 0.203,2.7461 0.23,5.625 -0.043,8.7109"
             id="path76"
             style="fill:#231f20;fill-opacity:1;fill-rule:nonzero;stroke:none" /><path
             d="m 121.008,43.3008 -2.117,2.4336 -3.602,-3.2149 1.481,-1.6992 c 0,0 1.507,0.7149 2.847,-0.8398 -1.004,-0.8789 -2.762,-2.3907 -3.777,-3.2813 -1.336,1.5625 -0.414,2.9414 -0.414,2.9414 l -1.465,1.6875 -4.395,-3.9453 -1.437,1.6602 4.523,3.789 -1.629,1.8672 c 0,0 -0.589,-0.5273 -1.468,-1.289 -1.293,1.4843 -2.297,3.4453 -1.367,5.9257 2.57,0.5664 4.374,-0.7031 5.667,-2.1679 -0.867,-0.7813 -1.472,-1.2969 -1.472,-1.2969 l 1.637,-1.9063 3.699,3.1172 -2.114,2.4297 c 1.922,0.2344 3.567,-0.4492 4.516,-1.5312 0.926,-1.0664 1.379,-2.8164 0.887,-4.6797 z m -5.781,9.2773 c -7.067,0 -9.797,-1.9609 -13.672,-4.9219 l 0,-22.9765 c 0,0 16.757,5.7695 25.906,21.9726 -2.117,3.1446 -5.188,5.9258 -12.234,5.9258"
             id="path78"
             style="fill:#231f20;fill-opacity:1;fill-rule:nonzero;stroke:none" /><path
             d="m 73.7148,94.1211 c 3.5274,2.0039 5.3516,3.4883 7.2344,6.4259 -1.3945,0.676 -3.0469,1.914 -4.2578,3.625 6.707,-1.887 10.1055,-2.863 18,-0.051 -1.2969,-2.039 -3.2109,-3.269 -4.8203,-4.2851 1.7891,-2.9492 3.5664,-6.3398 4.2031,-9.0234 -2.3711,0.1758 -5.0469,-0.3906 -6.9648,-2.1406 -2.9532,-0.1367 -6.6953,-1.0742 -8.7617,5.625 -1.0625,-0.5352 -2.1329,-1.25 -2.1329,-1.25 1.2032,-4.375 3.4297,-7.3516 9.3164,-6.7266 0.3321,-1.3984 0.586,-2.1992 1.3047,-3.3711 -2.414,-1.414 -8.4882,-4.9883 -13.1211,-0.8789 0,4.2891 0,12.0508 0,12.0508 z M 95.8984,84.25 c -0.625,-0.8906 -4.4179,-2.0625 -5.3515,-1.4648 -1.5821,0.9648 -2.375,3.0351 -2.0078,3.9257 0.4609,1.1602 4.6328,2.3125 5.9648,1.875 1.3438,-0.4414 1.9258,-3.5742 1.3945,-4.3359 z m 11.2926,5.0469 0,1.25 -2.945,0.0508 c 0.711,3.125 6.789,7.0898 9.52,8.0156 -0.149,3.3987 4.316,4.5237 7.906,4.6207 4.441,0.118 5.48,-4.6598 5.48,-6.1324 0,-1.9649 -0.515,-6.3204 -2.972,-7.6563 -3.575,-1.9648 -6.618,0.7422 -6.618,3.1914 0,2.6875 1.868,4.25 5.075,3.8985 3.215,-0.3633 2.968,1.4336 0.547,2.0507 -1.196,0.293 -6.297,0.5547 -7.996,-3.2343 -0.969,-0.0274 -2.036,0.3632 -2.637,0.9687 -0.66,-0.8711 -1.692,-1.4453 -3.117,-1.8359 1.23,-2.5313 3.757,-2.1016 5.293,-0.8906 -0.039,-0.3399 -0.075,-0.7032 -0.075,-1.0821 0,-6.1914 6.61,-7.7656 10.676,-5.4414 -0.676,-2 -0.363,-4.5391 -0.086,-6.2578 0,0 -13.851,0 -15.996,0 0.281,1.7187 2.402,3.6602 4.192,4.9219 l -1.418,2.2265 c -1.743,-0.7539 -3.372,-1.4453 -5.247,-1.9531 -4.433,-1.1328 -4.171,2.0117 0.418,3.2891 z M 68.8867,86.9336 c 1.7813,-1.4531 2.4571,-2.5274 1.8945,-7.4609 -0.0742,-0.6133 0.254,-1.7774 0.6211,-3.0274 l 60.2577,0 c 0.059,0.6563 0.094,1.2891 0.102,1.8555 0.047,2.707 -0.45,4.8437 -1.317,5.7422 -0.285,0.2851 -0.605,0.4297 -1.168,0.4297 -0.035,0 -0.054,0 -0.078,-0.0079 l -2.414,-0.2656 1.285,2.0508 c 1.262,2.0312 3.059,3.1953 4.973,3.332 l 0,17.891 -65,0 0,-19.973 c 0.2304,-0.1367 0.457,-0.2539 0.664,-0.4102 l 0.1797,-0.1562"
             id="path80"
             style="fill:#231f20;fill-opacity:1;fill-rule:nonzero;stroke:none" /><path
             d="m 68.043,86.1055 0,-9.6602 2.1406,0 c -0.3672,1.2617 -0.668,2.3828 -0.5664,3.1641 0.5547,4.8828 -0.1875,5.3711 -1.5742,6.4961"
             id="path82"
             style="fill:#231f20;fill-opacity:1;fill-rule:nonzero;stroke:none" /><path
             d="m 133.043,76.4453 0,11.9844 c -1.398,-0.1289 -2.855,-0.9961 -3.973,-2.793 0.118,0.0195 0.242,0.0274 0.348,0.0274 2.684,0 3.59,-3.6524 3.527,-7.3907 -0.007,-0.6172 -0.05,-1.2422 -0.101,-1.8281 l 0.199,0"
             id="path84"
             style="fill:#231f20;fill-opacity:1;fill-rule:nonzero;stroke:none" /><path
             d="m 83.8516,92.8711 c 1.125,-0.5273 2.4961,0.0898 3.9257,-0.0977 -0.2812,0.625 -0.5859,1.0743 -0.4062,1.9727 0.3477,1.75 -1.0234,2.1875 -1.6875,2.1406 -1.625,-0.0976 -2.5547,-0.4492 -4.2539,0 1.168,-1.1523 0.8711,-3.2617 2.4219,-4.0156"
             id="path86"
             style="fill:#231f20;fill-opacity:1;fill-rule:nonzero;stroke:none" /><path
             d="m 69.707,79.707 c 0.5664,5 -0.2148,5.3828 -1.6562,6.5625 -1.25,1.0352 -3.3164,1.3594 -5.3672,2.7735 -1.4688,1.0156 -1.8789,2.4922 -3.7383,4.4531 0.3672,4.2109 3.3828,9.3559 5.5899,10.5199 0.332,0.175 0.2226,6.687 0.2226,6.687 0,0 1.4688,0.059 1.3281,0.149 -1.9843,1.21 -4.3828,0.3 -6.1171,-1.731 -1.6836,-1.355 -5.5157,-3.933 -8.1641,-4.832 -3.5899,3.027 -9.1875,5.691 -13.2695,9.793 0,0 5.4101,0.051 7.9101,1.074 0.6641,0.403 2.4063,3.156 1.6953,5.801 -0.8398,0.305 -2.0508,0.938 -3.2383,1.594 -1.4843,0.847 -2.9218,1.758 -3.5898,2.265 -2.3555,1.778 -3.3008,3.329 -7.3633,4.356 0.2656,1.863 0.6602,1.433 2.457,2.637 2.2735,1.543 3.5469,3.386 4.4688,5.214 0.7031,1.426 -0.0977,4.375 -1.9336,0.633 -0.6367,-1.316 -2.4219,-3.074 -4.418,-3.613 0.1602,1.152 0.2188,1.828 0.2188,2.461 5.9453,4.191 5.3633,7.902 4.9062,11.379 -0.25,2.012 -2.2539,2.851 -2.1679,0.762 0.0429,-1.387 1.2851,-5.325 -2.7813,-7.637 -0.0898,1.746 -0.5664,2.539 -0.9336,3.426 3.6289,4.785 2.1016,9.386 0.5703,11.476 -0.9609,1.348 -3.3554,1.817 -2.2656,-0.312 0.8906,-1.739 2.3164,-6.457 -0.3594,-8.379 -0.9375,1.152 -2.0078,1.601 -2.3711,3.152 0.2696,5.188 -0.0586,8.352 -0.7109,10.195 -0.625,1.731 -2.2734,2.805 -2.1367,0.254 0.1445,-2.871 0.3945,-6.511 0.125,-6.738 -0.2617,-0.223 -4.0977,3.352 -5.6641,4.414 -1.582,1.094 -3.4414,0.684 -1.6093,-1.453 1.6132,-1.895 6.5195,-5.5 5.8906,-6.672 -0.3906,-0.73 -3.9024,2.168 -5.7071,2.774 -1.8359,0.636 -2.414,-0.34 -0.8554,-1.602 2.5,-2.059 4.1601,-3.398 8.2656,-4.785 4.1016,-1.375 6.1523,-7.059 4.8555,-15.164 -0.0508,-0.383 -0.7539,-0.324 -1.1524,-0.196 -0.1953,3.094 -0.7344,6.817 -1.4726,8.446 -0.9727,2.14 -2.8985,2.187 -2.1875,-0.711 0.5586,-2.305 0.8867,-4.785 0.4843,-7.863 -3.3906,0.578 -4.6875,1.476 -6.1015,2.324 -0.1524,1.574 0.6523,4.14 0.8086,6.476 0.1211,2.274 -1.2188,3.711 -1.9766,0.848 -0.7305,-2.742 -1.2109,-4.07 -1.6641,-6.035 -0.9687,0.312 -2.0039,0.773 -2.4765,1.301 -0.2227,0.254 -0.0117,3.347 -0.2461,5.574 -0.2305,2.531 -1.1992,2.461 -1.9609,0.226 -0.3399,-1.027 -0.6094,-2.375 -0.711,-4.023 -1.1992,0.723 -2.0078,2.109 -2.1406,3.223 0.1758,2.625 0.625,5.437 0.9414,7.187 0.2187,1.25 -0.6289,3.797 -1.6094,0.711 -0.71091,-2.207 -0.89841,-4.062 -1.33982,-5.625 -0.86328,0.07 -2,5.098 -2.58594,8.293 -0.25781,1.473 -1.47656,3.145 -1.69922,-0.117 -0.24218,-3.586 0.49219,-7.199 1.38672,-8.801 -1.75,0.176 -3.40234,3.313 -4.60546,5.137 -1.070318,1.621 -1.5703175,-0.078 -1.468755,-0.711 1.023435,-6.387 6.128905,-8.672 8.441405,-9.113 3.57027,-5.137 10.39067,-7.325 16.15237,-9.825 -7.5,0.09 -9.4571,-2.937 -12.8946,-0.976 0.1485,-2.832 1.5586,-4.141 2.9024,-4.793 0.9687,-0.449 1.9101,-0.578 2.3594,-0.656 0.6211,-3.438 3.8867,-3.262 6.6562,-3.438 -0.707,-6.699 0.0938,-15.547 5.9766,-22.1289 -0.1719,-3.4062 -0.3985,-7.8593 -0.3555,-10.8086 -4.8164,-4.4648 -9.1016,-13.8476 -10.8008,-19.0234 -1.2773,-3.8672 -3.1758,-6.8867 -6.1172,-8.293 2.4102,-2.5586 5.9727,-1.289 8.0313,0.1289 0.1445,-2.2773 0.6719,-3.8984 1.0312,-5.2265 -1.3789,-2.0508 -2.3125,-3.4844 -2.1875,-5.9844 -1.5703,-0.4297 -2.6328,-1.3867 -3.4804,-2.4531 -0.5235,-0.6641 0.0781,-3.75 0.6797,-5.0469 1.9218,-4.2969 0.4179,-13.9961 0.0781,-16.875 0.8047,-0.0391 2.2812,-0.0977 2.5976,1.1016 0.4649,-0.4297 1.6407,-1.2774 2.1875,-3.1524 -0.1406,-0.8008 -0.5937,-3.7812 0.9375,-4.1601 1.2461,-0.3125 6.6368,-0.129 7.3594,0.8086 -0.5391,0.6367 -1.4805,2.0507 -2.0547,3.4765 0,1.4766 -0.1367,3.2539 -0.5351,4.0235 -0.625,1.0742 -2.1875,3.5664 -3.1758,4.5624 -0.2149,1.7852 -0.4024,9.6876 0.4375,12.7149 1.3984,0.9766 10.9062,8.0351 12.875,14.793 1.7383,-0.5938 1.207,-5.3125 1.207,-11.4141 0,-1.6406 1.9883,-2.4727 3.1797,-2.6172 2.5625,-0.3125 6.2461,-2.7656 10.3399,-8.8398 0.7968,0.8515 1.832,1.6601 1.832,1.6601 0.5351,-0.7226 1.1523,-2.4804 1.5156,-3.5937 0.4453,-0.8282 3.7539,-1.3164 6.2969,-0.5547 0.8398,0.2734 1.3359,0.418 1.8867,1.3281 -3.2266,5.625 -5.168,9.3438 -9.293,12.4492 -1.9179,1.4453 -4.4687,2.1602 -6.6172,3.5352 1.4336,2.668 5.3711,15.2539 2.9883,19.8633 -0.8008,1.5156 -3.789,3.039 -7.4297,2.3554 3.0469,3.6719 9.2227,10.9063 10.0313,13.125 0.7109,-0.8515 4.3711,-0.2656 7.0781,-1.3203 0.9883,-0.3984 3.7656,-3.9844 3.8945,-5.2265 0.2422,-2.2149 0.3672,-4.8711 -1.1914,-10.9532 1.086,0.1836 0.9297,0.2344 1.9922,0.6719 0.1758,-1.6289 -0.3047,-2.9101 -1.7343,-5.3516 0.3593,-2.1874 1.3437,-5.5664 2.375,-6.2109 1.3828,4.1016 6.4765,9.9336 6.332,13.3399 -0.1797,4.6289 -2.332,8.5351 -2.0938,10.5468 l 0,0"
             id="path88"
             style="fill:#231f20;fill-opacity:1;fill-rule:nonzero;stroke:none" /><path
             d="m 261.031,130.59 c -0.82,2.605 -3.57,6.539 -9.066,6.539 -3.492,0 -6.539,-1.781 -8.024,-4.531 -1.789,-3.344 -2.601,-7.875 -2.601,-14.121 0,-8.915 1.48,-14.489 4.601,-16.719 1.637,-1.188 3.715,-1.7814 6.172,-1.7814 7.207,0 10.254,5.4964 10.254,18.6524 0,5.273 -0.449,9.066 -1.336,11.961 z m 15.977,-46.5158 c 0,0 -1.485,-0.8906 -4.61,-0.8906 -4.015,0 -7.578,2.3789 -9.511,3.6367 -2.453,1.6367 -6.465,3.9414 -10.481,5.207 -7.722,0 -12.777,2.1524 -16.718,7.2813 -3.934,5.0504 -5.942,11.5894 -5.942,19.1684 0,11.148 4.234,20.14 11.664,24.156 3.047,1.629 6.836,2.523 10.703,2.523 13.746,0 22.219,-10.035 22.219,-26.23 0,-11.219 -4.016,-19.6174 -10.184,-23.7072 1.414,-0.5196 3.418,-1.8555 4.614,-2.6016 1.851,-1.1133 4.086,-2.1524 6.383,-2.1524 2.234,0 4.613,0.3711 4.613,0.3711 l -2.75,-6.7617"
             id="path90"
             style="fill:#231f20;fill-opacity:1;fill-rule:nonzero;stroke:none" /><path
             d="m 307.129,91.8008 c -1.266,0.8945 -2.305,2.1562 -2.973,3.7187 -2.453,-2.3789 -6.019,-3.6445 -10.031,-3.6445 -5.352,0 -9.961,2.5312 -11.219,6.168 -0.597,1.707 -0.82,3.715 -0.82,7.582 l 0,24.371 9.809,1.859 0,-24.449 c 0,-3.418 0.296,-5.199 0.816,-6.242 0.519,-1.043 2.008,-1.7851 3.496,-1.7851 2.449,0 5.426,1.7851 6.164,3.6441 l 0,26.754 9.516,2.004 0,-29.054 c 0,-2.528 0.812,-5.1293 2.301,-6.9106 l -7.059,-4.0156"
             id="path92"
             style="fill:#231f20;fill-opacity:1;fill-rule:nonzero;stroke:none" /><path
             d="m 342.465,116.477 c 0,2.82 -0.297,4.304 -1.192,5.714 -0.964,1.493 -2.378,2.235 -4.382,2.235 -3.789,0 -5.946,-2.977 -5.946,-8.25 l 0,-0.149 11.52,0 0,0.45 z m -11.668,-7.731 0,-0.297 c 0,-5.871 2.898,-9.2146 8.027,-9.2146 3.418,0 6.614,1.2656 9.66,3.7886 l 3.864,-5.9488 c -4.383,-3.5625 -8.993,-5.2734 -14.34,-5.2734 -10.922,0 -17.985,7.7304 -17.985,19.6952 0,6.836 1.415,11.367 4.758,15.082 3.117,3.496 6.907,5.125 11.961,5.125 4.387,0 8.547,-1.484 10.996,-4.008 3.496,-3.57 5.055,-8.695 5.055,-16.644 l 0,-2.305 -21.996,0"
             id="path94"
             style="fill:#231f20;fill-opacity:1;fill-rule:nonzero;stroke:none" /><path
             d="m 380.027,116.477 c 0,2.82 -0.297,4.304 -1.187,5.714 -0.969,1.493 -2.379,2.235 -4.387,2.235 -3.789,0 -5.941,-2.977 -5.941,-8.25 l 0,-0.149 11.515,0 0,0.45 z m -11.668,-7.731 0,-0.297 c 0,-5.871 2.903,-9.2146 8.028,-9.2146 3.418,0 6.617,1.2656 9.664,3.7886 l 3.859,-5.9488 c -4.383,-3.5625 -8.992,-5.2734 -14.34,-5.2734 -10.922,0 -17.98,7.7304 -17.98,19.6952 0,6.836 1.41,11.367 4.754,15.082 3.121,3.496 6.91,5.125 11.965,5.125 4.382,0 8.543,-1.484 10.996,-4.008 3.496,-3.57 5.05,-8.695 5.05,-16.644 l 0,-2.305 -21.996,0"
             id="path96"
             style="fill:#231f20;fill-opacity:1;fill-rule:nonzero;stroke:none" /><path
             d="m 417.594,92.8438 0,24.7462 c 0,4.308 -0.742,5.57 -3.348,5.57 -2.004,0 -4.605,-1.34 -6.906,-3.418 l 0,-26.8982 -9.961,0 0,27.5662 c 0,3.274 -0.445,6.391 -1.34,8.918 l 8.844,2.527 c 0.894,-1.562 1.418,-3.199 1.418,-4.753 1.48,1.039 2.746,1.933 4.379,2.82 2.008,1.039 4.609,1.637 6.84,1.637 4.234,0 7.949,-2.231 9.136,-5.5 0.524,-1.411 0.746,-3.047 0.746,-5.422 l 0,-27.7932 -9.808,0"
             id="path98"
             style="fill:#231f20;fill-opacity:1;fill-rule:nonzero;stroke:none" /><path
             d="m 449.062,91.6523 c -4.683,0 -9.808,1.4883 -15.386,4.3829 l 3.57,7.2848 c 3.047,-1.859 8.32,-4.3122 12.633,-4.3122 2.82,0 5.055,1.8632 5.055,4.3122 0,2.598 -1.86,3.938 -5.872,4.684 l -4.457,0.816 c -2.531,0.442 -5.652,2.231 -6.988,3.86 -1.34,1.636 -2.152,4.386 -2.152,6.843 0,7.426 5.867,12.407 14.711,12.407 6.094,0 10.105,-1.856 13.597,-3.567 l -3.269,-6.687 c -3.789,1.933 -6.539,2.75 -9.359,2.75 -2.903,0 -4.833,-1.485 -4.833,-3.719 0,-1.934 1.262,-2.973 4.758,-3.859 l 4.606,-1.192 c 4.679,-1.187 6.242,-2.597 7.582,-4.312 1.41,-1.782 2.078,-3.938 2.078,-6.465 0,-7.8751 -6.543,-13.2267 -16.274,-13.2267"
             id="path100"
             style="fill:#231f20;fill-opacity:1;fill-rule:nonzero;stroke:none" /><path
             d="m 482.086,91.9492 c -4.238,0 -7.656,2.0078 -8.844,5.2031 -0.742,1.9297 -0.894,3.1207 -0.894,8.5467 l 0,28.383 c 0,4.98 -0.145,8.027 -0.516,11.445 l 10.18,2.305 c 0.371,-2.078 0.515,-4.531 0.515,-9.883 l 0,-29.648 c 0,-6.543 0.075,-7.43 0.672,-8.4729 0.371,-0.6679 1.192,-1.039 2.004,-1.039 0.371,0 0.598,0 1.113,0.1484 l 1.711,-5.9492 c -1.711,-0.668 -3.789,-1.0391 -5.941,-1.0391"
             id="path102"
             style="fill:#231f20;fill-opacity:1;fill-rule:nonzero;stroke:none" /><path
             d="m 510.141,109.488 c -6.911,0 -9.286,-1.265 -9.286,-5.797 0,-2.972 1.856,-4.9801 4.383,-4.9801 1.856,0 3.715,0.9688 5.2,2.6011 l 0.152,8.176 -0.449,0 z m 8.472,-18.5778 c -2.304,0.9648 -4.383,2.6757 -5.351,4.6093 -0.742,-0.7422 -1.559,-1.4843 -2.301,-2.0078 -1.859,-1.3398 -4.535,-2.082 -7.656,-2.082 -8.469,0 -13.075,4.3125 -13.075,11.8903 0,8.918 6.165,13.078 18.278,13.078 0.746,0 1.414,0 2.23,-0.074 l 0,1.563 c 0,4.234 -0.816,5.644 -4.461,5.644 -3.195,0 -6.906,-1.558 -10.996,-4.308 l -4.234,7.136 c 2.004,1.258 3.488,2.004 6.164,3.118 3.719,1.558 6.914,2.226 10.406,2.226 6.391,0 10.778,-2.375 12.262,-6.609 0.516,-1.563 0.742,-2.75 0.668,-6.836 l -0.227,-12.785 c -0.07,-4.161 0.227,-5.9418 3.571,-8.4691 l -5.278,-6.0937"
             id="path104"
             style="fill:#231f20;fill-opacity:1;fill-rule:nonzero;stroke:none" /><path
             d="m 551.055,92.8438 0,24.7462 c 0,4.308 -0.743,5.57 -3.344,5.57 -2.008,0 -4.609,-1.34 -6.91,-3.418 l 0,-26.8982 -9.961,0 0,27.5662 c 0,3.274 -0.445,6.391 -1.336,8.918 l 8.84,2.527 c 0.894,-1.562 1.418,-3.199 1.418,-4.753 1.484,1.039 2.75,1.933 4.379,2.82 2.007,1.039 4.609,1.637 6.839,1.637 4.235,0 7.95,-2.231 9.141,-5.5 0.52,-1.411 0.742,-3.047 0.742,-5.422 l 0,-27.7932 -9.808,0"
             id="path106"
             style="fill:#231f20;fill-opacity:1;fill-rule:nonzero;stroke:none" /><path
             d="m 591.887,120.855 c -1.86,1.637 -3.645,2.457 -5.426,2.457 -4.457,0 -6.395,-3.718 -6.395,-12.187 0,-8.176 1.711,-10.852 6.914,-10.852 1.86,0 3.938,1.266 4.907,2.454 l 0,18.128 z m 2.23,-28.0112 c -0.301,0.5937 -0.449,1.1914 -0.597,2.2304 -2.45,-2.1601 -5.352,-3.1992 -8.77,-3.1992 -9.656,0 -15.75,7.5039 -15.75,19.32 0,11.891 6.609,20.067 16.273,20.067 2.75,0 4.903,-0.672 6.762,-2.157 -0.148,0.817 -0.297,3.418 -0.297,5.645 l 0,13.082 9.883,-1.562 0,-39.532 c 0,-9.363 0.742,-12.4099 1.41,-13.8942 l -8.914,0"
             id="path108"
             style="fill:#231f20;fill-opacity:1;fill-rule:nonzero;stroke:none" /><path
             d="m 253.227,20.1094 c -6.391,0 -11.817,2.2265 -15.676,6.3867 -4.313,4.6797 -6.321,11 -6.321,19.7695 0,9.7305 2.602,16.6446 7.875,21.3985 3.645,3.2695 8.028,4.832 13.301,4.832 5.426,0 10.11,-1.7109 13.977,-5.0547 l -2.754,-3.7891 c -4.16,2.8243 -7.129,3.9375 -11.07,3.9375 -5.95,0 -10.625,-2.75 -12.711,-8.621 -1.332,-3.7891 -2,-8.0977 -2,-12.9297 0,-6.6875 1.257,-12.1133 3.562,-15.4571 2.305,-3.3398 7.504,-5.4258 12.336,-5.4258 3.195,0 5.945,0.668 8.102,2.0079 l 0,15.5312 -10.254,0 -1.188,5.0547 17.16,0 0,-23.7812 c -3.64,-2.375 -9.136,-3.8594 -14.339,-3.8594"
             id="path110"
             style="fill:#231f20;fill-opacity:1;fill-rule:nonzero;stroke:none" /><path
             d="m 301.113,49.5312 c -1.558,3.2735 -4.828,4.7579 -7.875,4.7579 -3.265,0 -6.312,-1.5586 -7.578,-4.0157 -1.191,-2.3007 -1.781,-5.2734 -1.781,-9.6562 0,-5.2031 0.887,-9.8125 2.297,-12.1172 1.34,-2.2266 4.312,-3.7148 7.512,-3.7148 3.863,0 6.757,2.0078 8.023,5.5781 0.816,2.3047 1.109,4.3828 1.109,8.0195 0,5.207 -0.515,8.6992 -1.707,11.1484 z M 293.535,19.957 c -10.18,0 -15.976,7.5039 -15.976,19.6914 0,12.043 6.019,19.3946 15.753,19.3946 6.168,0 10.18,-2.8203 12.708,-6.4649 2.304,-3.3437 3.418,-7.7304 3.418,-13.7461 0,-12.3359 -6.618,-18.875 -15.903,-18.875"
             id="path112"
             style="fill:#231f20;fill-opacity:1;fill-rule:nonzero;stroke:none" /><path
             d="m 332.512,20.5508 -5.727,0 -13.301,37.082 5.95,1.2656 8.617,-25.4882 c 1.043,-3.0469 1.785,-6.3204 1.785,-6.3204 l 0.148,0 c 0,0 0.598,2.9024 1.786,6.2461 l 8.468,24.5938 6.168,0 -13.894,-37.3789"
             id="path114"
             style="fill:#231f20;fill-opacity:1;fill-rule:nonzero;stroke:none" /><path
             d="m 373.121,51.0938 c -1.266,2.0078 -3.867,3.2656 -6.691,3.2656 -5.278,0 -8.246,-3.8594 -8.543,-11.5117 l 16.941,0 c -0.078,4.0078 -0.594,6.4648 -1.707,8.2461 z m -15.234,-12.6329 0,-0.8906 c 0,-3.4922 0.441,-6.168 1.707,-8.1015 2.082,-3.1954 5.5,-4.5313 9.215,-4.5313 3.562,0 6.464,1.1133 9.066,3.4922 l 2.227,-3.7188 c -3.266,-2.9726 -7.731,-4.6015 -12.485,-4.6015 -10.254,0 -16.422,7.4258 -16.422,19.6914 0,6.2383 1.34,10.2539 4.457,13.9687 2.977,3.4922 6.618,5.1289 11.078,5.1289 4.012,0 7.504,-1.414 10.028,-4.0156 3.199,-3.2695 4.238,-6.7617 4.238,-15.6055 l 0,-0.8164 -23.109,0"
             id="path116"
             style="fill:#231f20;fill-opacity:1;fill-rule:nonzero;stroke:none" /><path
             d="m 407.113,52.3594 c -0.371,0.1445 -1.039,0.2929 -1.633,0.2929 -2.226,0 -4.46,-0.9609 -6.168,-2.6718 -1.71,-1.7071 -2.156,-2.8282 -2.156,-5.875 l 0,-23.1836 -5.793,0 0,28.5351 c 0,5.4258 -1.265,7.8789 -1.265,7.8789 l 5.797,1.5625 c 0,0 1.41,-2.9023 1.191,-6.0234 2.672,3.7891 6.609,6.168 10.398,6.168 0.969,0 2.008,-0.3711 2.008,-0.3711 l -2.379,-6.3125"
             id="path118"
             style="fill:#231f20;fill-opacity:1;fill-rule:nonzero;stroke:none" /><path
             d="m 436.367,20.9219 0,25.0469 c 0,3.9335 -0.293,4.9023 -1.332,6.164 -0.82,0.9688 -2.379,1.5586 -4.094,1.5586 -2.968,0 -7.578,-2.3789 -10.253,-5.1992 l 0,-27.5703 -5.645,0 0,28.5351 c 0,5.2813 -1.41,7.8047 -1.41,7.8047 l 5.644,1.5625 c 0,0 1.336,-2.7539 1.336,-5.7969 3.864,3.8633 7.731,5.7188 11.668,5.7188 4.012,0 7.582,-2.1523 9.067,-5.4258 0.593,-1.3359 0.894,-2.8203 0.894,-4.3047 l 0,-28.0937 -5.875,0"
             id="path120"
             style="fill:#231f20;fill-opacity:1;fill-rule:nonzero;stroke:none" /><path
             d="m 494,20.9219 0,27.3515 c 0,3.5625 -1.637,5.418 -4.758,5.418 -3.344,0 -5.941,-2.1523 -9.808,-5.7187 l 0,-27.0508 -5.872,0 0,26.3047 c 0,2.2304 -0.222,3.7148 -1.039,4.7578 -0.89,1.0429 -2.078,1.4883 -3.789,1.4883 -2.82,0 -5.574,-1.4102 -9.437,-4.9063 l 0,-27.6445 -5.57,0 0,28.6836 c 0,5.3515 -1.34,7.8789 -1.34,7.8789 l 5.644,1.3398 c 0,0 1.34,-2.9023 1.34,-5.5039 2.453,2.75 6.984,5.5781 10.774,5.5781 3.644,0 7.281,-2.2343 8.621,-6.1679 3.57,3.789 8.097,6.1679 11.886,6.1679 5.504,0 9.293,-4.1601 9.293,-10.0351 l 0,-27.9414 -5.945,0"
             id="path122"
             style="fill:#231f20;fill-opacity:1;fill-rule:nonzero;stroke:none" /><path
             d="m 531.105,51.0938 c -1.265,2.0078 -3.871,3.2656 -6.691,3.2656 -5.277,0 -8.246,-3.8594 -8.547,-11.5117 l 16.945,0 c -0.078,4.0078 -0.593,6.4648 -1.707,8.2461 z m -15.238,-12.6329 0,-0.8906 c 0,-3.4922 0.445,-6.168 1.711,-8.1015 2.078,-3.1954 5.496,-4.5313 9.215,-4.5313 3.562,0 6.465,1.1133 9.066,3.4922 l 2.227,-3.7188 c -3.266,-2.9726 -7.731,-4.6015 -12.484,-4.6015 -10.254,0 -16.422,7.4258 -16.422,19.6914 0,6.2383 1.34,10.2539 4.457,13.9687 2.972,3.4922 6.617,5.1289 11.074,5.1289 4.016,0 7.508,-1.414 10.031,-4.0156 3.196,-3.2695 4.238,-6.7617 4.238,-15.6055 l 0,-0.8164 -23.113,0"
             id="path124"
             style="fill:#231f20;fill-opacity:1;fill-rule:nonzero;stroke:none" /><path
             d="m 570.668,20.9219 0,25.0469 c 0,3.9335 -0.293,4.9023 -1.332,6.164 -0.82,0.9688 -2.379,1.5586 -4.086,1.5586 -2.977,0 -7.582,-2.3789 -10.262,-5.1992 l 0,-27.5703 -5.64,0 0,28.5351 c 0,5.2813 -1.414,7.8047 -1.414,7.8047 l 5.644,1.5625 c 0,0 1.34,-2.7539 1.34,-5.7969 3.859,3.8633 7.727,5.7188 11.664,5.7188 4.016,0 7.582,-2.1523 9.066,-5.4258 0.598,-1.3359 0.895,-2.8203 0.895,-4.3047 l 0,-28.0937 -5.875,0"
             id="path126"
             style="fill:#231f20;fill-opacity:1;fill-rule:nonzero;stroke:none" /><path
             d="m 601.477,53.5469 -7.727,0 0,-23.8555 c 0,-4.0859 1.113,-5.4961 4.758,-5.4961 1.629,0 2.597,0.2188 3.637,0.7422 l 0.82,-3.7148 c -1.86,-0.9688 -3.942,-1.4844 -6.543,-1.4844 -1.93,0 -3.418,0.3711 -4.828,1.039 -2.602,1.2579 -3.567,3.6368 -3.567,7.3516 l 0,25.418 -4.836,0 0,4.3828 4.836,0 c 0,3.5664 0.59,9.3672 0.59,9.3672 l 6.094,1.332 c 0,0 -0.742,-5.7969 -0.742,-10.6992 l 9.293,0 -1.785,-4.3828"
             id="path128"
             style="fill:#231f20;fill-opacity:1;fill-rule:nonzero;stroke:none" /></g></g></g></g></svg>